0
SECTION
2
HEADER
9
$INSUNITS
70
4
9
$ACADVER
1
AC1014
9
$HANDSEED
5
FFFF
0
ENDSEC
0
SECTION
2
TABLES
0
TABLE
2
VPORT
5
8
100
AcDbSymbolTable
0
ENDTAB
0
TABLE
2
LTYPE
5
5
100
AcDbSymbolTable
0
LTYPE
5
14
100
AcDbSymbolTableRecord
100
AcDbLinetypeTableRecord
2
BYBLOCK
70
0
0
LTYPE
5
15
100
AcDbSymbolTableRecord
100
AcDbLinetypeTableRecord
2
BYLAYER
70
0
0
ENDTAB
0
TABLE
2
LAYER
5
2
100
AcDbSymbolTable
70
2
0
LAYER
5
50
100
AcDbSymbolTableRecord
100
AcDbLayerTableRecord
2
0
70
0
6
CONTINUOUS
0
ENDTAB
0
TABLE
2
STYLE
5
3
100
AcDbSymbolTable
70
1
0
STYLE
5
11
100
AcDbSymbolTableRecord
100
AcDbTextStyleTableRecord
2
STANDARD
70
0
0
ENDTAB
0
TABLE
2
VIEW
5
6
100
AcDbSymbolTable
70
0
0
ENDTAB
0
TABLE
2
UCS
5
7
100
AcDbSymbolTable
70
0
0
ENDTAB
0
TABLE
2
APPID
5
9
100
AcDbSymbolTable
70
2
0
APPID
5
12
100
AcDbSymbolTableRecord
100
AcDbRegAppTableRecord
2
ACAD
70
0
0
ENDTAB
0
TABLE
2
DIMSTYLE
5
A
100
AcDbSymbolTable
70
1
0
ENDTAB
0
TABLE
2
BLOCK_RECORD
5
1
100
AcDbSymbolTable
70
1
0
BLOCK_RECORD
5
1F
100
AcDbSymbolTableRecord
100
AcDbBlockTableRecord
2
*MODEL_SPACE
0
BLOCK_RECORD
5
1B
100
AcDbSymbolTableRecord
100
AcDbBlockTableRecord
2
*PAPER_SPACE
0
ENDTAB
0
ENDSEC
0
SECTION
2
BLOCKS
0
BLOCK
5
20
100
AcDbEntity
100
AcDbBlockBegin
2
*MODEL_SPACE
0
ENDBLK
5
21
100
AcDbEntity
100
AcDbBlockEnd
0
BLOCK
5
1C
100
AcDbEntity
100
AcDbBlockBegin
2
*PAPER_SPACE
0
ENDBLK
5
1D
100
AcDbEntity
100
AcDbBlockEnd
0
ENDSEC
0
SECTION
2
ENTITIES
0
LWPOLYLINE
5
100
100
AcDbEntity
8
0
100
AcDbPolyline
90
8
70
1
43
0.0
10
8
20
0
10
991.99999999999989
20
0
42
0.41421356237310714
10
1000.0000000000001
20
7.9999999999999991
10
1000
20
192
42
0.41421356237309631
10
992
20
200
10
7.9999999999999716
20
200
42
0.41421356237309126
10
-2.2204460492503131e-15
20
192
10
0
20
8.0000000000000089
42
0.41421356237309548
0
SPLINE
5
101
100
AcDbEntity
8
0
100
AcDbSpline
70
0
71
2
72
6
73
3
74
0
42
0.000000001
43
0.0000000001
44
0.0000000001
40
0
40
0
40
0
40
1
40
1
40
1
10
153.8472435023462
20
92.432168013807114
30
0
10
148.81341667434327
20
67.506592757459458
30
0
10
132.69704551955812
20
52.608082778211411
30
0
0
SPLINE
5
102
100
AcDbEntity
8
0
100
AcDbSpline
70
0
71
2
72
6
73
3
74
0
42
0.000000001
43
0.0000000001
44
0.0000000001
40
0
40
0
40
0
40
1
40
1
40
1
10
132.69704551955812
20
52.608082778211411
30
0
10
116.58067436477296
20
37.709572798963364
30
0
10
94.659154131618664
20
37.709572798963364
30
0
0
SPLINE
5
103
100
AcDbEntity
8
0
100
AcDbSpline
70
0
71
2
72
6
73
3
74
0
42
0.000000001
43
0.0000000001
44
0.0000000001
40
0
40
0
40
0
40
1
40
1
40
1
10
94.659154131618664
20
37.709572798963364
30
0
10
74.686221792904064
20
37.709572798963364
30
0
10
64.699754431453869
20
48.873303420301255
30
0
0
SPLINE
5
104
100
AcDbEntity
8
0
100
AcDbSpline
70
0
71
2
72
6
73
3
74
0
42
0.000000001
43
0.0000000001
44
0.0000000001
40
0
40
0
40
0
40
1
40
1
40
1
10
64.699754431453869
20
48.873303420301255
30
0
10
54.713287070003673
20
60.037053115125474
30
0
10
54.713287070003673
20
82.364514357801255
30
0
0
SPLINE
5
105
100
AcDbEntity
8
0
100
AcDbSpline
70
0
71
2
72
6
73
3
74
0
42
0.000000001
43
0.0000000001
44
0.0000000001
40
0
40
0
40
0
40
1
40
1
40
1
10
54.713287070003673
20
82.364514357801255
30
0
10
54.713287070003673
20
103.39292813038426
30
0
10
64.659158899990246
20
125.67980099415379
30
0
0
SPLINE
5
106
100
AcDbEntity
8
0
100
AcDbSpline
70
0
71
2
72
6
73
3
74
0
42
0.000000001
43
0.0000000001
44
0.0000000001
40
0
40
0
40
0
40
1
40
1
40
1
10
64.659158899990246
20
125.67980099415379
30
0
10
74.605030729976818
20
147.96667385792333
30
0
10
90.193659975734874
20
161.68791104054051
30
0
0
SPLINE
5
107
100
AcDbEntity
8
0
100
AcDbSpline
70
0
71
2
72
6
73
3
74
0
42
0.000000001
43
0.0000000001
44
0.0000000001
40
0
40
0
40
0
40
1
40
1
40
1
10
90.193659975734874
20
161.68791104054051
30
0
10
100.58608742019288
20
170.86247730946141
30
0
10
112.19636650344484
20
170.86247730946141
30
0
0
SPLINE
5
108
100
AcDbEntity
8
0
100
AcDbSpline
70
0
71
2
72
6
73
3
74
0
42
0.000000001
43
0.0000000001
44
0.0000000001
40
0
40
0
40
0
40
1
40
1
40
1
10
112.19636650344484
20
170.86247730946141
30
0
10
119.58472938796632
20
170.86247730946141
30
0
10
131.68215484878175
20
165.99102307056981
30
0
0
SPLINE
5
109
100
AcDbEntity
8
0
100
AcDbSpline
70
0
71
2
72
6
73
3
74
0
42
0.000000001
43
0.0000000001
44
0.0000000001
40
0
40
0
40
0
40
1
40
1
40
1
10
131.68215484878175
20
165.99102307056981
30
0
10
146.45888061782472
20
160.14528561329442
30
0
10
146.45888061782472
20
153.08168698048192
30
0
0
SPLINE
5
110
100
AcDbEntity
8
0
100
AcDbSpline
70
0
71
2
72
6
73
3
74
0
42
0.000000001
43
0.0000000001
44
0.0000000001
40
0
40
0
40
0
40
1
40
1
40
1
10
146.45888061782472
20
153.08168698048192
30
0
10
146.45888061782472
20
149.75286770557958
30
0
10
144.0231582667505
20
147.15476322865086
30
0
0
SPLINE
5
111
100
AcDbEntity
8
0
100
AcDbSpline
70
0
71
2
72
6
73
3
74
0
42
0.000000001
43
0.0000000001
44
0.0000000001
40
0
40
0
40
0
40
1
40
1
40
1
10
144.0231582667505
20
147.15476322865086
30
0
10
141.58743591567628
20
144.55665875172215
30
0
10
138.17742080947511
20
144.55665875172215
30
0
0
SPLINE
5
112
100
AcDbEntity
8
0
100
AcDbSpline
70
0
71
2
72
6
73
3
74
0
42
0.000000001
43
0.0000000001
44
0.0000000001
40
0
40
0
40
0
40
1
40
1
40
1
10
138.17742080947511
20
144.55665875172215
30
0
10
136.39122696181886
20
144.55665875172215
30
0
10
133.14359398147218
20
146.58643055653172
30
0
0
SPLINE
5
113
100
AcDbEntity
8
0
100
AcDbSpline
70
0
71
2
72
6
73
3
74
0
42
0.000000001
43
0.0000000001
44
0.0000000001
40
0
40
0
40
0
40
1
40
1
40
1
10
133.14359398147218
20
146.58643055653172
30
0
10
120.72140426894777
20
154.13716603016454
30
0
10
112.19636650344484
20
154.13716603016454
30
0
0
SPLINE
5
114
100
AcDbEntity
8
0
100
AcDbSpline
70
0
71
2
72
6
73
3
74
0
42
0.000000001
43
0.0000000001
44
0.0000000001
40
0
40
0
40
0
40
1
40
1
40
1
10
112.19636650344484
20
154.13716603016454
30
0
10
106.10706062575929
20
154.13716603016454
30
0
10
99.449412539211437
20
147.80429173206883
30
0
0
SPLINE
5
115
100
AcDbEntity
8
0
100
AcDbSpline
70
0
71
2
72
6
73
3
74
0
42
0.000000001
43
0.0000000001
44
0.0000000001
40
0
40
0
40
0
40
1
40
1
40
1
10
99.449412539211437
20
147.80429173206883
30
0
10
96.120593264309093
20
144.63784504627782
30
0
10
89.868900492397472
20
136.27519894337254
30
0
0
SPLINE
5
116
100
AcDbEntity
8
0
100
AcDbSpline
70
0
71
2
72
6
73
3
74
0
42
0.000000001
43
0.0000000001
44
0.0000000001
40
0
40
0
40
0
40
1
40
1
40
1
10
89.868900492397472
20
136.27519894337254
30
0
10
71.113826945034191
20
111.43081951832372
30
0
10
71.113826945034191
20
82.364514357801255
30
0
0
SPLINE
5
117
100
AcDbEntity
8
0
100
AcDbSpline
70
0
71
2
72
6
73
3
74
0
42
0.000000001
43
0.0000000001
44
0.0000000001
40
0
40
0
40
0
40
1
40
1
40
1
10
71.113826945034191
20
82.364514357801255
30
0
10
71.113826945034191
20
67.10064221119481
30
0
10
75.822894289699718
20
61.011326796766099
30
0
0
SPLINE
5
118
100
AcDbEntity
8
0
100
AcDbSpline
70
0
71
2
72
6
73
3
74
0
42
0.000000001
43
0.0000000001
44
0.0000000001
40
0
40
0
40
0
40
1
40
1
40
1
10
75.822894289699718
20
61.011326796766099
30
0
10
80.937912180629894
20
54.353688246961411
30
0
10
94.659154131618664
20
54.353688246961411
30
0
0
SPLINE
5
119
100
AcDbEntity
8
0
100
AcDbSpline
70
0
71
2
72
6
73
3
74
0
42
0.000000001
43
0.0000000001
44
0.0000000001
40
0
40
0
40
0
40
1
40
1
40
1
10
94.659154131618664
20
54.353688246961411
30
0
10
109.19231148025148
20
54.353688246961411
30
0
10
119.9094936396753
20
63.528244979139146
30
0
0
SPLINE
5
120
100
AcDbEntity
8
0
100
AcDbSpline
70
0
71
2
72
6
73
3
74
0
42
0.000000001
43
0.0000000001
44
0.0000000001
40
0
40
0
40
0
40
1
40
1
40
1
10
119.9094936396753
20
63.528244979139146
30
0
10
131.19501800796144
20
73.271143920179185
30
0
10
135.66050262710206
20
91.376698500867661
30
0
0
SPLINE
5
121
100
AcDbEntity
8
0
100
AcDbSpline
70
0
71
2
72
6
73
3
74
0
42
0.000000001
43
0.0000000001
44
0.0000000001
40
0
40
0
40
0
40
1
40
1
40
1
10
135.66050262710206
20
91.376698500867661
30
0
10
113.17065925857179
20
90.240014083143052
30
0
10
97.094876482692882
20
82.689278609510239
30
0
0
SPLINE
5
122
100
AcDbEntity
8
0
100
AcDbSpline
70
0
71
2
72
6
73
3
74
0
42
0.000000001
43
0.0000000001
44
0.0000000001
40
0
40
0
40
0
40
1
40
1
40
1
10
97.094876482692882
20
82.689278609510239
30
0
10
95.227496340480968
20
81.796181685682114
30
0
10
93.441292956081554
20
81.796181685682114
30
0
0
SPLINE
5
123
100
AcDbEntity
8
0
100
AcDbSpline
70
0
71
2
72
6
73
3
74
0
42
0.000000001
43
0.0000000001
44
0.0000000001
40
0
40
0
40
0
40
1
40
1
40
1
10
93.441292956081554
20
81.796181685682114
30
0
10
89.868900492397472
20
81.796181685682114
30
0
10
87.514366820064708
20
84.556668288465318
30
0
0
SPLINE
5
124
100
AcDbEntity
8
0
100
AcDbSpline
70
0
71
2
72
6
73
3
74
0
42
0.000000001
43
0.0000000001
44
0.0000000001
40
0
40
0
40
0
40
1
40
1
40
1
10
87.514366820064708
20
84.556668288465318
30
0
10
85.322215273586437
20
87.073586470838364
30
0
10
85.322215273586437
20
90.402405745740708
30
0
0
SPLINE
5
125
100
AcDbEntity
8
0
100
AcDbSpline
70
0
71
2
72
6
73
3
74
0
42
0.000000001
43
0.0000000001
44
0.0000000001
40
0
40
0
40
0
40
1
40
1
40
1
10
85.322215273586437
20
90.402405745740708
30
0
10
85.322215273586437
20
94.867890364881333
30
0
10
89.625327303615734
20
97.547190673108872
30
0
0
SPLINE
5
126
100
AcDbEntity
8
0
100
AcDbSpline
70
0
71
2
72
6
73
3
74
0
42
0.000000001
43
0.0000000001
44
0.0000000001
40
0
40
0
40
0
40
1
40
1
40
1
10
89.625327303615734
20
97.547190673108872
30
0
10
107.16253967544191
20
108.26438236927586
30
0
10
150.11246414443605
20
108.26438236927586
30
0
0
SPLINE
5
127
100
AcDbEntity
8
0
100
AcDbSpline
70
0
71
2
72
6
73
3
74
0
42
0.000000001
43
0.0000000001
44
0.0000000001
40
0
40
0
40
0
40
1
40
1
40
1
10
150.11246414443605
20
108.26438236927586
30
0
10
153.60367508193605
20
108.26438236927586
30
0
10
155.95820160171144
20
105.90983677601415
30
0
0
SPLINE
5
128
100
AcDbEntity
8
0
100
AcDbSpline
70
0
71
2
72
6
73
3
74
0
42
0.000000001
43
0.0000000001
44
0.0000000001
40
0
40
0
40
0
40
1
40
1
40
1
10
155.95820160171144
20
105.90983677601415
30
0
10
158.31273765822999
20
103.55531025623876
30
0
10
158.31273765822999
20
99.982922560926255
30
0
0
SPLINE
5
129
100
AcDbEntity
8
0
100
AcDbSpline
70
0
71
2
72
6
73
3
74
0
42
0.000000001
43
0.0000000001
44
0.0000000001
40
0
40
0
40
0
40
1
40
1
40
1
10
158.31273765822999
20
99.982922560926255
30
0
10
158.31273765822999
20
94.705517775770005
30
0
10
153.8472435023462
20
92.432168013807114
30
0
0
SPLINE
5
130
100
AcDbEntity
8
0
100
AcDbSpline
70
0
71
2
72
6
73
3
74
0
42
0.000000001
43
0.0000000001
44
0.0000000001
40
0
40
0
40
0
40
1
40
1
40
1
10
235.76877327224366
20
103.3117418358286
30
0
10
235.20042152663819
20
93.162892348523911
30
0
10
227.64968605300538
20
93.162892348523911
30
0
0
SPLINE
5
131
100
AcDbEntity
8
0
100
AcDbSpline
70
0
71
2
72
6
73
3
74
0
42
0.000000001
43
0.0000000001
44
0.0000000001
40
0
40
0
40
0
40
1
40
1
40
1
10
227.64968605300538
20
93.162892348523911
30
0
10
220.66726417800538
20
93.162892348523911
30
0
10
220.66726417800538
20
101.20078373646336
30
0
0
SPLINE
5
132
100
AcDbEntity
8
0
100
AcDbSpline
70
0
71
2
72
6
73
3
74
0
42
0.000000001
43
0.0000000001
44
0.0000000001
40
0
40
0
40
0
40
1
40
1
40
1
10
220.66726417800538
20
101.20078373646336
30
0
10
220.66726417800538
20
102.74340916370946
30
0
10
220.42369575759523
20
106.8841295311411
30
0
0
LINE
5
133
100
AcDbEntity
8
0
100
AcDbLine
10
220.42369575759523
20
106.8841295311411
30
0
11
220.18012733718507
21
113.70415974354344
31
0
0
SPLINE
5
134
100
AcDbEntity
8
0
100
AcDbSpline
70
0
71
2
72
6
73
3
74
0
42
0.000000001
43
0.0000000001
44
0.0000000001
40
0
40
0
40
0
40
1
40
1
40
1
10
220.18012733718507
20
113.70415974354344
30
0
10
207.35198707839601
20
112.16153431629735
30
0
10
199.63885994216554
20
106.47817898487645
30
0
0
SPLINE
5
135
100
AcDbEntity
8
0
100
AcDbSpline
70
0
71
2
72
6
73
3
74
0
42
0.000000001
43
0.0000000001
44
0.0000000001
40
0
40
0
40
0
40
1
40
1
40
1
10
199.63885994216554
20
106.47817898487645
30
0
10
192.41287918349855
20
101.20078373646336
30
0
10
187.62262077590577
20
90.564778334852036
30
0
0
LINE
5
136
100
AcDbEntity
8
0
100
AcDbLine
10
187.62262077590577
20
90.564778334852022
30
0
11
187.78500290176027
21
46.072228438611802
31
0
0
SPLINE
5
137
100
AcDbEntity
8
0
100
AcDbSpline
70
0
71
2
72
6
73
3
74
0
42
0.000000001
43
0.0000000001
44
0.0000000001
40
0
40
0
40
0
40
1
40
1
40
1
10
187.78500290176027
20
46.072228438611802
30
0
10
187.78500290176027
20
37.871964461561021
30
0
10
179.74712105056398
20
37.871964461561021
30
0
0
SPLINE
5
138
100
AcDbEntity
8
0
100
AcDbSpline
70
0
71
2
72
6
73
3
74
0
42
0.000000001
43
0.0000000001
44
0.0000000001
40
0
40
0
40
0
40
1
40
1
40
1
10
179.74712105056398
20
37.871964461561021
30
0
10
172.60232658645265
20
37.871964461561021
30
0
10
172.60232658645265
20
46.072228438611802
30
0
0
LINE
5
139
100
AcDbEntity
8
0
100
AcDbLine
10
172.60232658645265
20
46.072228438611802
30
0
11
172.60232658645265
21
103.06817341541844
31
0
0
SPLINE
5
140
100
AcDbEntity
8
0
100
AcDbSpline
70
0
71
2
72
6
73
3
74
0
42
0.000000001
43
0.0000000001
44
0.0000000001
40
0
40
0
40
0
40
1
40
1
40
1
10
172.60232658645265
20
103.06817341541844
30
0
10
172.60232658645265
20
105.74746418690282
30
0
10
172.80530662795655
20
111.10605526661473
30
0
0
SPLINE
5
141
100
AcDbEntity
8
0
100
AcDbSpline
70
0
71
2
72
6
73
3
74
0
42
0.000000001
43
0.0000000001
44
0.0000000001
40
0
40
0
40
0
40
1
40
1
40
1
10
172.80530662795655
20
111.10605526661473
30
0
10
173.0082771327173
20
116.46464634632665
30
0
10
173.0082771327173
20
119.14393711781102
30
0
0
SPLINE
5
142
100
AcDbEntity
8
0
100
AcDbSpline
70
0
71
2
72
6
73
3
74
0
42
0.000000001
43
0.0000000001
44
0.0000000001
40
0
40
0
40
0
40
1
40
1
40
1
10
173.0082771327173
20
119.14393711781102
30
0
10
173.0082771327173
20
127.34421063160497
30
0
10
180.15307159682862
20
127.34421063160497
30
0
0
SPLINE
5
143
100
AcDbEntity
8
0
100
AcDbSpline
70
0
71
2
72
6
73
3
74
0
42
0.000000001
43
0.0000000001
44
0.0000000001
40
0
40
0
40
0
40
1
40
1
40
1
10
180.15307159682862
20
127.34421063160497
30
0
10
188.10976715346925
20
127.34421063160497
30
0
10
188.19095344802491
20
113.86654186939793
30
0
0
SPLINE
5
144
100
AcDbEntity
8
0
100
AcDbSpline
70
0
71
2
72
6
73
3
74
0
42
0.000000001
43
0.0000000001
44
0.0000000001
40
0
40
0
40
0
40
1
40
1
40
1
10
188.19095344802491
20
113.86654186939793
30
0
10
203.77958984634034
20
128.88683605885106
30
0
10
222.77824135085694
20
128.88683605885106
30
0
0
SPLINE
5
145
100
AcDbEntity
8
0
100
AcDbSpline
70
0
71
2
72
6
73
3
74
0
42
0.000000001
43
0.0000000001
44
0.0000000001
40
0
40
0
40
0
40
1
40
1
40
1
10
222.77824135085694
20
128.88683605885106
30
0
10
229.3546840693628
20
128.88683605885106
30
0
10
232.60232658645265
20
123.93419552540379
30
0
0
SPLINE
5
146
100
AcDbEntity
8
0
100
AcDbSpline
70
0
71
2
72
6
73
3
74
0
42
0.000000001
43
0.0000000001
44
0.0000000001
40
0
40
0
40
0
40
1
40
1
40
1
10
232.60232658645265
20
123.93419552540379
30
0
10
235.84995003005616
20
118.98156452869969
30
0
10
235.84995003005616
20
108.99508763050633
30
0
0
SPLINE
5
147
100
AcDbEntity
8
0
100
AcDbSpline
70
0
71
2
72
6
73
3
74
0
42
0.000000001
43
0.0000000001
44
0.0000000001
40
0
40
0
40
0
40
1
40
1
40
1
10
235.84995003005616
20
108.99508763050633
30
0
10
235.84995003005616
20
104.77317143177586
30
0
10
235.76877327224366
20
103.3117418358286
30
0
0
SPLINE
5
148
100
AcDbEntity
8
0
100
AcDbSpline
70
0
71
2
72
6
73
3
74
0
42
0.000000001
43
0.0000000001
44
0.0000000001
40
0
40
0
40
0
40
1
40
1
40
1
10
290.41015358230226
20
39.576962477918443
30
0
10
272.06104011794679
20
39.576962477918443
30
0
10
260.69432945510499
20
48.751519210096177
30
0
0
SPLINE
5
149
100
AcDbEntity
8
0
100
AcDbSpline
70
0
71
2
72
6
73
3
74
0
42
0.000000001
43
0.0000000001
44
0.0000000001
40
0
40
0
40
0
40
1
40
1
40
1
10
260.69432945510499
20
48.751519210096177
30
0
10
248.27213020583741
20
58.900368697400864
30
0
10
248.27213020583741
20
77.168305403943833
30
0
0
SPLINE
5
150
100
AcDbEntity
8
0
100
AcDbSpline
70
0
71
2
72
6
73
3
74
0
42
0.000000001
43
0.0000000001
44
0.0000000001
40
0
40
0
40
0
40
1
40
1
40
1
10
248.27213020583741
20
77.168305403943833
30
0
10
248.27213020583741
20
98.277905471082505
30
0
10
258.50217552444093
20
112.56749439930516
30
0
0
SPLINE
5
151
100
AcDbEntity
8
0
100
AcDbSpline
70
0
71
2
72
6
73
3
74
0
42
0.000000001
43
0.0000000001
44
0.0000000001
40
0
40
0
40
0
40
1
40
1
40
1
10
288.21799965163819
20
128.15612126087743
30
0
10
301.69566841384523
20
128.15612126087743
30
0
10
310.22071571609132
20
123.60943127369481
30
0
0
SPLINE
5
152
100
AcDbEntity
8
0
100
AcDbSpline
70
0
71
2
72
6
73
3
74
0
42
0.000000001
43
0.0000000001
44
0.0000000001
40
0
40
0
40
0
40
1
40
1
40
1
10
310.22071571609132
20
123.60943127369481
30
0
10
320.69431038161866
20
118.00727177357274
30
0
10
320.69431038161866
20
106.39699269032079
30
0
0
SPLINE
5
153
100
AcDbEntity
8
0
100
AcDbSpline
70
0
71
2
72
6
73
3
74
0
42
0.000000001
43
0.0000000001
44
0.0000000001
40
0
40
0
40
0
40
1
40
1
40
1
10
320.69431038161866
20
106.39699269032079
30
0
10
320.69431038161866
20
98.277905471082505
30
0
10
311.51975364944093
20
91.620266921277818
30
0
0
LINE
5
154
100
AcDbEntity
8
0
100
AcDbLine
10
290.65306189004252
20
80.795434692189332
30
0
11
263.29242439529054
21
67.831357009168443
31
0
0
SPLINE
5
155
100
AcDbEntity
8
0
100
AcDbSpline
70
0
71
2
72
6
73
3
74
0
42
0.000000001
43
0.0000000001
44
0.0000000001
40
0
40
0
40
0
40
1
40
1
40
1
10
263.29242439529054
20
67.831357009168443
30
0
10
267.83910484572999
20
61.092522628064927
30
0
10
274.61854667922609
20
57.682507521863755
30
0
0
SPLINE
5
156
100
AcDbEntity
8
0
100
AcDbSpline
70
0
71
2
72
6
73
3
74
0
42
0.000000001
43
0.0000000001
44
0.0000000001
40
0
40
0
40
0
40
1
40
1
40
1
10
274.61854667922609
20
57.682507521863755
30
0
10
281.39796943923585
20
54.272492415662583
30
0
10
290.41015358230226
20
54.272492415662583
30
0
0
SPLINE
5
157
100
AcDbEntity
8
0
100
AcDbSpline
70
0
71
2
72
6
73
3
74
0
42
0.000000001
43
0.0000000001
44
0.0000000001
40
0
40
0
40
0
40
1
40
1
40
1
10
290.41015358230226
20
54.272492415662583
30
0
10
296.01232261916749
20
54.272492415662583
30
0
10
303.5630580928003
20
56.383469588514146
30
0
0
SPLINE
5
158
100
AcDbEntity
8
0
100
AcDbSpline
70
0
71
2
72
6
73
3
74
0
42
0.000000001
43
0.0000000001
44
0.0000000001
40
0
40
0
40
0
40
1
40
1
40
1
10
303.5630580928003
20
56.383469588514146
30
0
10
313.14357490798585
20
59.062760359998521
30
0
10
315.90406151076905
20
63.406460768934068
30
0
0
SPLINE
5
159
100
AcDbEntity
8
0
100
AcDbSpline
70
0
71
2
72
6
73
3
74
0
42
0.000000001
43
0.0000000001
44
0.0000000001
40
0
40
0
40
0
40
1
40
1
40
1
10
315.90406151076905
20
63.406460768934068
30
0
10
318.66454811355226
20
67.750170714612779
30
0
10
321.83099479934327
20
67.750170714612779
30
0
0
SPLINE
5
160
100
AcDbEntity
8
0
100
AcDbSpline
70
0
71
2
72
6
73
3
74
0
42
0.000000001
43
0.0000000001
44
0.0000000001
40
0
40
0
40
0
40
1
40
1
40
1
10
321.83099479934327
20
67.750170714612779
30
0
10
324.67265815993898
20
67.750170714612779
30
0
10
326.90541954299562
20
65.59861469959813
30
0
0
SPLINE
5
161
100
AcDbEntity
8
0
100
AcDbSpline
70
0
71
2
72
6
73
3
74
0
42
0.000000001
43
0.0000000001
44
0.0000000001
40
0
40
0
40
0
40
1
40
1
40
1
10
326.90541954299562
20
65.59861469959813
30
0
10
329.13816185256593
20
63.447068221326646
30
0
10
329.13816185256593
20
60.605385787244614
30
0
0
SPLINE
5
162
100
AcDbEntity
8
0
100
AcDbSpline
70
0
71
2
72
6
73
3
74
0
42
0.000000001
43
0.0000000001
44
0.0000000001
40
0
40
0
40
0
40
1
40
1
40
1
10
329.13816185256593
20
60.605385787244614
30
0
10
329.13816185256593
20
51.593201644178208
30
0
10
314.60500450393312
20
45.097935683484849
30
0
0
SPLINE
5
163
100
AcDbEntity
8
0
100
AcDbSpline
70
0
71
2
72
6
73
3
74
0
42
0.000000001
43
0.0000000001
44
0.0000000001
40
0
40
0
40
0
40
1
40
1
40
1
10
314.60500450393312
20
45.097935683484849
30
0
10
302.18280525466554
20
39.576962477918443
30
0
10
290.41015358230226
20
39.576962477918443
30
0
0
SPLINE
5
164
100
AcDbEntity
8
0
100
AcDbSpline
70
0
71
2
72
6
73
3
74
0
42
0.000000001
43
0.0000000001
44
0.0000000001
40
0
40
0
40
0
40
1
40
1
40
1
10
271.7362758662378
20
105.8692483971079
30
0
10
265.15981407424562
20
98.196719176526841
30
0
10
261.9121906306421
20
82.770464904065904
30
0
0
LINE
5
165
100
AcDbEntity
8
0
100
AcDbLine
10
261.9121906306421
20
82.770464904065904
30
0
11
284.68250150501166
21
93.599342757210906
31
0
0
SPLINE
5
166
100
AcDbEntity
8
0
100
AcDbSpline
70
0
71
2
72
6
73
3
74
0
42
0.000000001
43
0.0000000001
44
0.0000000001
40
0
40
0
40
0
40
1
40
1
40
1
10
307.78497429153077
20
107.04652119373876
30
0
10
300.8025714900171
20
113.54177761768895
30
0
10
288.21799965163819
20
113.54177761768895
30
0
0
SPLINE
5
167
100
AcDbEntity
8
0
100
AcDbSpline
70
0
71
2
72
6
73
3
74
0
42
0.000000001
43
0.0000000001
44
0.0000000001
40
0
40
0
40
0
40
1
40
1
40
1
10
381.50623054763429
20
39.576962477918443
30
0
10
363.15711708327882
20
39.576962477918443
30
0
10
351.79040642043702
20
48.751519210096177
30
0
0
SPLINE
5
168
100
AcDbEntity
8
0
100
AcDbSpline
70
0
71
2
72
6
73
3
74
0
42
0.000000001
43
0.0000000001
44
0.0000000001
40
0
40
0
40
0
40
1
40
1
40
1
10
351.79040642043702
20
48.751519210096177
30
0
10
339.36820717116944
20
58.900368697400864
30
0
10
339.36820717116944
20
77.168305403943833
30
0
0
SPLINE
5
169
100
AcDbEntity
8
0
100
AcDbSpline
70
0
71
2
72
6
73
3
74
0
42
0.000000001
43
0.0000000001
44
0.0000000001
40
0
40
0
40
0
40
1
40
1
40
1
10
339.36820717116944
20
77.168305403943833
30
0
10
339.36820717116944
20
98.277905471082505
30
0
10
349.59825248977296
20
112.56749439930516
30
0
0
SPLINE
5
170
100
AcDbEntity
8
0
100
AcDbSpline
70
0
71
2
72
6
73
3
74
0
42
0.000000001
43
0.0000000001
44
0.0000000001
40
0
40
0
40
0
40
1
40
1
40
1
10
379.31407661697023
20
128.15612126087743
30
0
10
392.79174537917726
20
128.15612126087743
30
0
10
401.31679268142335
20
123.60943127369481
30
0
0
SPLINE
5
171
100
AcDbEntity
8
0
100
AcDbSpline
70
0
71
2
72
6
73
3
74
0
42
0.000000001
43
0.0000000001
44
0.0000000001
40
0
40
0
40
0
40
1
40
1
40
1
10
401.31679268142335
20
123.60943127369481
30
0
10
411.79038734695069
20
118.00727177357274
30
0
10
411.79038734695069
20
106.39699269032079
30
0
0
SPLINE
5
172
100
AcDbEntity
8
0
100
AcDbSpline
70
0
71
2
72
6
73
3
74
0
42
0.000000001
43
0.0000000001
44
0.0000000001
40
0
40
0
40
0
40
1
40
1
40
1
10
411.79038734695069
20
106.39699269032079
30
0
10
411.79038734695069
20
98.277905471082505
30
0
10
402.61584968825929
20
91.620266921277818
30
0
0
SPLINE
5
173
100
AcDbEntity
8
0
100
AcDbSpline
70
0
71
2
72
6
73
3
74
0
42
0.000000001
43
0.0000000001
44
0.0000000001
40
0
40
0
40
0
40
1
40
1
40
1
10
402.61584968825929
20
91.620266921277818
30
0
10
398.55628700515382
20
88.697398192640122
30
0
10
385.4034015681421
20
82.526896483655747
30
0
0
LINE
5
174
100
AcDbEntity
8
0
100
AcDbLine
10
385.4034015681421
20
82.526896483655761
30
0
11
354.38850136062257
21
67.831357009168443
31
0
0
SPLINE
5
175
100
AcDbEntity
8
0
100
AcDbSpline
70
0
71
2
72
6
73
3
74
0
42
0.000000001
43
0.0000000001
44
0.0000000001
40
0
40
0
40
0
40
1
40
1
40
1
10
354.38850136062257
20
67.831357009168443
30
0
10
358.93518181106202
20
61.092522628064927
30
0
10
365.71462364455812
20
57.682507521863755
30
0
0
SPLINE
5
176
100
AcDbEntity
8
0
100
AcDbSpline
70
0
71
2
72
6
73
3
74
0
42
0.000000001
43
0.0000000001
44
0.0000000001
40
0
40
0
40
0
40
1
40
1
40
1
10
365.71462364455812
20
57.682507521863755
30
0
10
372.49404640456788
20
54.272492415662583
30
0
10
381.50623054763429
20
54.272492415662583
30
0
0
SPLINE
5
177
100
AcDbEntity
8
0
100
AcDbSpline
70
0
71
2
72
6
73
3
74
0
42
0.000000001
43
0.0000000001
44
0.0000000001
40
0
40
0
40
0
40
1
40
1
40
1
10
381.50623054763429
20
54.272492415662583
30
0
10
387.10838051101319
20
54.272492415662583
30
0
10
394.65915413161866
20
56.383469588514146
30
0
0
SPLINE
5
178
100
AcDbEntity
8
0
100
AcDbSpline
70
0
71
2
72
6
73
3
74
0
42
0.000000001
43
0.0000000001
44
0.0000000001
40
0
40
0
40
0
40
1
40
1
40
1
10
394.65915413161866
20
56.383469588514146
30
0
10
404.23965187331788
20
59.062760359998521
30
0
10
407.00015754958741
20
63.406460768934068
30
0
0
SPLINE
5
179
100
AcDbEntity
8
0
100
AcDbSpline
70
0
71
2
72
6
73
3
74
0
42
0.000000001
43
0.0000000001
44
0.0000000001
40
0
40
0
40
0
40
1
40
1
40
1
10
407.00015754958741
20
63.406460768934068
30
0
10
409.76062507888429
20
67.750170714612779
30
0
10
412.92705269118898
20
67.750170714612779
30
0
0
SPLINE
5
180
100
AcDbEntity
8
0
100
AcDbSpline
70
0
71
2
72
6
73
3
74
0
42
0.000000001
43
0.0000000001
44
0.0000000001
40
0
40
0
40
0
40
1
40
1
40
1
10
412.92705269118898
20
67.750170714612779
30
0
10
415.76873512527101
20
67.750170714612779
30
0
10
418.00147743484132
20
65.59861469959813
30
0
0
SPLINE
5
181
100
AcDbEntity
8
0
100
AcDbSpline
70
0
71
2
72
6
73
3
74
0
42
0.000000001
43
0.0000000001
44
0.0000000001
40
0
40
0
40
0
40
1
40
1
40
1
10
418.00147743484132
20
65.59861469959813
30
0
10
420.23425789138429
20
63.447068221326646
30
0
10
420.23425789138429
20
60.605385787244614
30
0
0
SPLINE
5
182
100
AcDbEntity
8
0
100
AcDbSpline
70
0
71
2
72
6
73
3
74
0
42
0.000000001
43
0.0000000001
44
0.0000000001
40
0
40
0
40
0
40
1
40
1
40
1
10
420.23425789138429
20
60.605385787244614
30
0
10
420.23425789138429
20
51.593201644178208
30
0
10
405.70110054275148
20
45.097935683484849
30
0
0
SPLINE
5
183
100
AcDbEntity
8
0
100
AcDbSpline
70
0
71
2
72
6
73
3
74
0
42
0.000000001
43
0.0000000001
44
0.0000000001
40
0
40
0
40
0
40
1
40
1
40
1
10
405.70110054275148
20
45.097935683484849
30
0
10
393.27888221999757
20
39.576962477918443
30
0
10
381.50623054763429
20
39.576962477918443
30
0
0
SPLINE
5
184
100
AcDbEntity
8
0
100
AcDbSpline
70
0
71
2
72
6
73
3
74
0
42
0.000000001
43
0.0000000001
44
0.0000000001
40
0
40
0
40
0
40
1
40
1
40
1
10
362.83235283156984
20
105.8692483971079
30
0
10
356.25589103957765
20
98.196719176526841
30
0
10
353.00826759597413
20
82.770464904065904
30
0
0
LINE
5
185
100
AcDbEntity
8
0
100
AcDbLine
10
353.00826759597413
20
82.770464904065904
30
0
11
375.6315009693227
21
93.529397102876658
31
0
0
SPLINE
5
186
100
AcDbEntity
8
0
100
AcDbSpline
70
0
71
2
72
6
73
3
74
0
42
0.000000001
43
0.0000000001
44
0.0000000001
40
0
40
0
40
0
40
1
40
1
40
1
10
398.88107033034913
20
107.04652119373876
30
0
10
391.89864845534913
20
113.54177761768895
30
0
10
379.31407661697023
20
113.54177761768895
30
0
0
SPLINE
5
187
100
AcDbEntity
8
0
100
AcDbSpline
70
0
71
2
72
6
73
3
74
0
42
0.000000001
43
0.0000000001
44
0.0000000001
40
0
40
0
40
0
40
1
40
1
40
1
10
496.95956917068116
20
37.547200209852036
30
0
10
489.97714729568116
20
37.547200209852036
30
0
10
489.08405037185304
20
45.179131514783677
30
0
0
LINE
5
188
100
AcDbEntity
8
0
100
AcDbLine
10
489.0840503718531
20
45.17913151478367
30
0
11
486.81071968337648
21
62.959912307020005
31
0
0
SPLINE
5
189
100
AcDbEntity
8
0
100
AcDbSpline
70
0
71
2
72
6
73
3
74
0
42
0.000000001
43
0.0000000001
44
0.0000000001
40
0
40
0
40
0
40
1
40
1
40
1
10
486.81071968337648
20
62.959912307020005
30
0
10
485.67405433913819
20
72.459233290906724
30
0
10
485.67405433913819
20
80.740693099256333
30
0
0
SPLINE
5
190
100
AcDbEntity
8
0
100
AcDbSpline
70
0
71
2
72
6
73
3
74
0
42
0.000000001
43
0.0000000001
44
0.0000000001
40
0
40
0
40
0
40
1
40
1
40
1
10
485.67405433913819
20
80.740693099256333
30
0
10
485.67405433913819
20
83.014042861219224
30
0
10
485.9582111384546
20
88.453820235486802
30
0
0
SPLINE
5
191
100
AcDbEntity
8
0
100
AcDbSpline
70
0
71
2
72
6
73
3
74
0
42
0.000000001
43
0.0000000001
44
0.0000000001
40
0
40
0
40
0
40
1
40
1
40
1
10
485.9582111384546
20
88.453820235486802
30
0
10
486.24236793777101
20
93.893607146497544
30
0
10
486.24236793777101
20
96.166947371717271
30
0
0
SPLINE
5
192
100
AcDbEntity
8
0
100
AcDbSpline
70
0
71
2
72
6
73
3
74
0
42
0.000000001
43
0.0000000001
44
0.0000000001
40
0
40
0
40
0
40
1
40
1
40
1
10
486.24236793777101
20
96.166947371717271
30
0
10
486.24236793777101
20
113.70415974354344
30
0
10
479.74712105056398
20
113.70415974354344
30
0
0
SPLINE
5
193
100
AcDbEntity
8
0
100
AcDbSpline
70
0
71
2
72
6
73
3
74
0
42
0.000000001
43
0.0000000001
44
0.0000000001
40
0
40
0
40
0
40
1
40
1
40
1
10
479.74712105056398
20
113.70415974354344
30
0
10
470.65372200271241
20
113.70415974354344
30
0
10
462.37228126784913
20
102.90578175282079
30
0
0
SPLINE
5
194
100
AcDbEntity
8
0
100
AcDbSpline
70
0
71
2
72
6
73
3
74
0
42
0.000000001
43
0.0000000001
44
0.0000000001
40
0
40
0
40
0
40
1
40
1
40
1
10
462.37228126784913
20
102.90578175282079
30
0
10
454.90272255202882
20
93.081696517225083
30
0
10
450.68080635329835
20
78.061402327771958
30
0
0
SPLINE
5
195
100
AcDbEntity
8
0
100
AcDbSpline
70
0
71
2
72
6
73
3
74
0
42
0.000000001
43
0.0000000001
44
0.0000000001
40
0
40
0
40
0
40
1
40
1
40
1
10
450.68080635329835
20
78.061402327771958
30
0
10
450.51841469070069
20
74.894955641980943
30
0
10
449.95010109206788
20
70.104706771131333
30
0
0
SPLINE
5
196
100
AcDbEntity
8
0
100
AcDbSpline
70
0
71
2
72
6
73
3
74
0
42
0.000000001
43
0.0000000001
44
0.0000000001
40
0
40
0
40
0
40
1
40
1
40
1
10
449.95010109206788
20
70.104706771131333
30
0
10
449.46292610427491
20
66.045163161512193
30
0
10
449.46292610427491
20
62.229187972303208
30
0
0
SPLINE
5
197
100
AcDbEntity
8
0
100
AcDbSpline
70
0
71
2
72
6
73
3
74
0
42
0.000000001
43
0.0000000001
44
0.0000000001
40
0
40
0
40
0
40
1
40
1
40
1
10
449.46292610427491
20
62.229187972303208
30
0
10
449.46292610427491
20
59.793465621228989
30
0
10
449.95010109206788
20
54.922020919080552
30
0
0
SPLINE
5
198
100
AcDbEntity
8
0
100
AcDbSpline
70
0
71
2
72
6
73
3
74
0
42
0.000000001
43
0.0000000001
44
0.0000000001
40
0
40
0
40
0
40
1
40
1
40
1
10
449.95010109206788
20
54.922020919080552
30
0
10
450.43723793288819
20
50.050576216932114
30
0
10
450.43723793288819
20
47.614853865857896
30
0
0
SPLINE
5
199
100
AcDbEntity
8
0
100
AcDbSpline
70
0
71
2
72
6
73
3
74
0
42
0.000000001
43
0.0000000001
44
0.0000000001
40
0
40
0
40
0
40
1
40
1
40
1
10
450.43723793288819
20
47.614853865857896
30
0
10
450.43723793288819
20
43.961270339246568
30
0
10
448.20449562331788
20
41.687920577283677
30
0
0
SPLINE
5
200
100
AcDbEntity
8
0
100
AcDbSpline
70
0
71
2
72
6
73
3
74
0
42
0.000000001
43
0.0000000001
44
0.0000000001
40
0
40
0
40
0
40
1
40
1
40
1
10
448.20449562331788
20
41.687920577283677
30
0
10
445.97175331374757
20
39.414589888807114
30
0
10
442.48054237624757
20
39.414589888807114
30
0
0
SPLINE
5
201
100
AcDbEntity
8
0
100
AcDbSpline
70
0
71
2
72
6
73
3
74
0
42
0.000000001
43
0.0000000001
44
0.0000000001
40
0
40
0
40
0
40
1
40
1
40
1
10
442.48054237624757
20
39.414589888807114
30
0
10
438.90815468093507
20
39.414589888807114
30
0
10
436.71600075027101
20
41.687920577283677
30
0
0
SPLINE
5
202
100
AcDbEntity
8
0
100
AcDbSpline
70
0
71
2
72
6
73
3
74
0
42
0.000000001
43
0.0000000001
44
0.0000000001
40
0
40
0
40
0
40
1
40
1
40
1
10
436.71600075027101
20
41.687920577283677
30
0
10
434.52384681960694
20
43.961270339246568
30
0
10
434.52384681960694
20
47.614853865857896
30
0
0
SPLINE
5
203
100
AcDbEntity
8
0
100
AcDbSpline
70
0
71
2
72
6
73
3
74
0
42
0.000000001
43
0.0000000001
44
0.0000000001
40
0
40
0
40
0
40
1
40
1
40
1
10
434.52384681960694
20
47.614853865857896
30
0
10
434.52384681960694
20
50.050576216932114
30
0
10
433.99608345290773
20
54.922020919080552
30
0
0
SPLINE
5
204
100
AcDbEntity
8
0
100
AcDbSpline
70
0
71
2
72
6
73
3
74
0
42
0.000000001
43
0.0000000001
44
0.0000000001
40
0
40
0
40
0
40
1
40
1
40
1
10
433.99608345290773
20
54.922020919080552
30
0
10
433.46835823318116
20
59.793465621228989
30
0
10
433.46835823318116
20
62.229187972303208
30
0
0
SPLINE
5
205
100
AcDbEntity
8
0
100
AcDbSpline
70
0
71
2
72
6
73
3
74
0
42
0.000000001
43
0.0000000001
44
0.0000000001
40
0
40
0
40
0
40
1
40
1
40
1
10
433.46835823318116
20
62.229187972303208
30
0
10
433.46835823318116
20
70.591843611951646
30
0
10
434.64561195632569
20
85.409167296644029
30
0
0
SPLINE
5
206
100
AcDbEntity
8
0
100
AcDbSpline
70
0
71
2
72
6
73
3
74
0
42
0.000000001
43
0.0000000001
44
0.0000000001
40
0
40
0
40
0
40
1
40
1
40
1
10
434.64561195632569
20
85.409167296644029
30
0
10
435.82290382644288
20
100.22649098133641
30
0
10
435.82290382644288
20
108.58913708424168
30
0
0
SPLINE
5
207
100
AcDbEntity
8
0
100
AcDbSpline
70
0
71
2
72
6
73
3
74
0
42
0.000000001
43
0.0000000001
44
0.0000000001
40
0
40
0
40
0
40
1
40
1
40
1
10
435.82290382644288
20
108.58913708424168
30
0
10
435.82290382644288
20
111.1872415611704
30
0
10
435.53870888015382
20
116.30226422047215
30
0
0
SPLINE
5
208
100
AcDbEntity
8
0
100
AcDbSpline
70
0
71
2
72
6
73
3
74
0
42
0.000000001
43
0.0000000001
44
0.0000000001
40
0
40
0
40
0
40
1
40
1
40
1
10
435.53870888015382
20
116.30226422047215
30
0
10
435.25455208083741
20
121.41728687977391
30
0
10
435.25455208083741
20
124.01538181995946
30
0
0
SPLINE
5
209
100
AcDbEntity
8
0
100
AcDbSpline
70
0
71
2
72
6
73
3
74
0
42
0.000000001
43
0.0000000001
44
0.0000000001
40
0
40
0
40
0
40
1
40
1
40
1
10
435.25455208083741
20
124.01538181995946
30
0
10
435.25455208083741
20
127.50659275745946
30
0
10
437.56850929519288
20
129.73933506702977
30
0
0
SPLINE
5
210
100
AcDbEntity
8
0
100
AcDbSpline
70
0
71
2
72
6
73
3
74
0
42
0.000000001
43
0.0000000001
44
0.0000000001
40
0
40
0
40
0
40
1
40
1
40
1
10
437.56850929519288
20
129.73933506702977
30
0
10
439.88242836257569
20
131.97209645008641
30
0
10
443.29246254226319
20
131.97209645008641
30
0
0
SPLINE
5
211
100
AcDbEntity
8
0
100
AcDbSpline
70
0
71
2
72
6
73
3
74
0
42
0.000000001
43
0.0000000001
44
0.0000000001
40
0
40
0
40
0
40
1
40
1
40
1
10
443.29246254226319
20
131.97209645008641
30
0
10
450.76198311111085
20
131.97209645008641
30
0
10
451.49272651931398
20
121.41728687977391
30
0
0
LINE
5
212
100
AcDbEntity
8
0
100
AcDbLine
10
451.49272651931398
20
121.41728687977391
30
0
11
451.73629493972413
21
111.91796589588719
31
0
0
SPLINE
5
213
100
AcDbEntity
8
0
100
AcDbSpline
70
0
71
2
72
6
73
3
74
0
42
0.000000001
43
0.0000000001
44
0.0000000001
40
0
40
0
40
0
40
1
40
1
40
1
10
451.73629493972413
20
111.91796589588719
30
0
10
465.37635536452882
20
130.10470677113133
30
0
10
479.74712105056398
20
130.10470677113133
30
0
0
SPLINE
5
214
100
AcDbEntity
8
0
100
AcDbSpline
70
0
71
2
72
6
73
3
74
0
42
0.000000001
43
0.0000000001
44
0.0000000001
40
0
40
0
40
0
40
1
40
1
40
1
10
479.74712105056398
20
130.10470677113133
30
0
10
492.73765297195069
20
130.10470677113133
30
0
10
497.85266609450929
20
118.65680027699071
30
0
0
SPLINE
5
215
100
AcDbEntity
8
0
100
AcDbSpline
70
0
71
2
72
6
73
3
74
0
42
0.000000001
43
0.0000000001
44
0.0000000001
40
0
40
0
40
0
40
1
40
1
40
1
10
497.85266609450929
20
118.65680027699071
30
0
10
501.34387703200929
20
111.02486897205907
30
0
10
501.66862221023194
20
96.085751540418443
30
0
0
LINE
5
216
100
AcDbEntity
8
0
100
AcDbLine
10
501.668622210232
20
96.085751540418443
30
0
11
501.66862221023194
21
87.885487563367661
31
0
0
LINE
5
217
100
AcDbEntity
8
0
100
AcDbLine
10
501.66862221023194
20
87.885487563367661
30
0
11
501.58744545241944
21
80.334742552991685
31
0
0
SPLINE
5
218
100
AcDbEntity
8
0
100
AcDbSpline
70
0
71
2
72
6
73
3
74
0
42
0.000000001
43
0.0000000001
44
0.0000000001
40
0
40
0
40
0
40
1
40
1
40
1
10
501.58744545241944
20
80.334742552991685
30
0
10
501.58744545241944
20
73.595908171888169
30
0
10
503.33305092116944
20
62.919323928113755
30
0
0
SPLINE
5
219
100
AcDbEntity
8
0
100
AcDbSpline
70
0
71
2
72
6
73
3
74
0
42
0.000000001
43
0.0000000001
44
0.0000000001
40
0
40
0
40
0
40
1
40
1
40
1
10
503.33305092116944
20
62.919323928113755
30
0
10
505.07861824294679
20
52.242730147596177
30
0
10
505.07861824294679
20
45.585091597791489
30
0
0
SPLINE
5
220
100
AcDbEntity
8
0
100
AcDbSpline
70
0
71
2
72
6
73
3
74
0
42
0.000000001
43
0.0000000001
44
0.0000000001
40
0
40
0
40
0
40
1
40
1
40
1
10
505.07861824294679
20
45.585091597791489
30
0
10
505.07861824294679
20
42.012684828992661
30
0
10
502.76469917556398
20
39.779942519422349
30
0
0
SPLINE
5
221
100
AcDbEntity
8
0
100
AcDbSpline
70
0
71
2
72
6
73
3
74
0
42
0.000000001
43
0.0000000001
44
0.0000000001
40
0
40
0
40
0
40
1
40
1
40
1
10
502.76469917556398
20
39.779942519422349
30
0
10
500.45078010818116
20
37.547200209852036
30
0
10
496.95956917068116
20
37.547200209852036
30
0
0
SPLINE
5
222
100
AcDbEntity
8
0
100
AcDbSpline
70
0
71
2
72
6
73
3
74
0
42
0.000000001
43
0.0000000001
44
0.0000000001
40
0
40
0
40
0
40
1
40
1
40
1
10
589.67941017409908
20
38.277905471082505
30
0
10
583.91486854812251
20
38.277905471082505
30
0
10
582.12863655349361
20
44.44840718006688
30
0
0
SPLINE
5
223
100
AcDbEntity
8
0
100
AcDbSpline
70
0
71
2
72
6
73
3
74
0
42
0.000000001
43
0.0000000001
44
0.0000000001
40
0
40
0
40
0
40
1
40
1
40
1
10
582.12863655349361
20
44.44840718006688
30
0
10
580.26126594802486
20
51.106064803357896
30
0
10
578.71864052077876
20
63.365872390027818
30
0
0
SPLINE
5
224
100
AcDbEntity
8
0
100
AcDbSpline
70
0
71
2
72
6
73
3
74
0
42
0.000000001
43
0.0000000001
44
0.0000000001
40
0
40
0
40
0
40
1
40
1
40
1
10
578.71864052077876
20
63.365872390027818
30
0
10
577.25719185134517
20
75.138533599134277
30
0
10
577.25719185134517
20
82.689278609510254
30
0
0
SPLINE
5
225
100
AcDbEntity
8
0
100
AcDbSpline
70
0
71
2
72
6
73
3
74
0
42
0.000000001
43
0.0000000001
44
0.0000000001
40
0
40
0
40
0
40
1
40
1
40
1
10
577.25719185134517
20
82.689278609510254
30
0
10
577.25719185134517
20
84.800236708875488
30
0
10
577.46017189284908
20
89.103348738904785
30
0
0
SPLINE
5
226
100
AcDbEntity
8
0
100
AcDbSpline
70
0
71
2
72
6
73
3
74
0
42
0.000000001
43
0.0000000001
44
0.0000000001
40
0
40
0
40
0
40
1
40
1
40
1
10
577.46017189284908
20
89.103348738904785
30
0
10
577.66315193435298
20
93.406460768934082
30
0
10
577.66315193435298
20
95.517418868299316
30
0
0
SPLINE
5
227
100
AcDbEntity
8
0
100
AcDbSpline
70
0
71
2
72
6
73
3
74
0
42
0.000000001
43
0.0000000001
44
0.0000000001
40
0
40
0
40
0
40
1
40
1
40
1
10
577.66315193435298
20
95.517418868299316
30
0
10
577.66315193435298
20
110.78129101490576
30
0
10
570.03123970290767
20
110.78129101490576
30
0
0
SPLINE
5
228
100
AcDbEntity
8
0
100
AcDbSpline
70
0
71
2
72
6
73
3
74
0
42
0.000000001
43
0.0000000001
44
0.0000000001
40
0
40
0
40
0
40
1
40
1
40
1
10
570.03123970290767
20
110.78129101490576
30
0
10
559.71999855300533
20
110.78129101490576
30
0
10
551.60091133376704
20
101.44435215687353
30
0
0
SPLINE
5
229
100
AcDbEntity
8
0
100
AcDbSpline
70
0
71
2
72
6
73
3
74
0
42
0.000000001
43
0.0000000001
44
0.0000000001
40
0
40
0
40
0
40
1
40
1
40
1
10
551.60091133376704
20
101.44435215687353
30
0
10
547.46017189284908
20
96.654093749280761
30
0
10
540.23421974441158
20
83.17642498707373
30
0
0
SPLINE
5
230
100
AcDbEntity
8
0
100
AcDbSpline
70
0
71
2
72
6
73
3
74
0
42
0.000000001
43
0.0000000001
44
0.0000000001
40
0
40
0
40
0
40
1
40
1
40
1
10
540.23421974441158
20
83.17642498707373
30
0
10
540.23421974441158
20
52.242730147596177
30
0
10
537.6361057307397
20
46.559365279432114
30
0
0
SPLINE
5
231
100
AcDbEntity
8
0
100
AcDbSpline
70
0
71
2
72
6
73
3
74
0
42
0.000000001
43
0.0000000001
44
0.0000000001
40
0
40
0
40
0
40
1
40
1
40
1
10
537.6361057307397
20
46.559365279432114
30
0
10
535.36277504226314
20
41.525547988172349
30
0
10
530.5725070979272
20
41.525547988172349
30
0
0
SPLINE
5
232
100
AcDbEntity
8
0
100
AcDbSpline
70
0
71
2
72
6
73
3
74
0
42
0.000000001
43
0.0000000001
44
0.0000000001
40
0
40
0
40
0
40
1
40
1
40
1
10
530.5725070979272
20
41.525547988172349
30
0
10
527.24368782302486
20
41.525547988172349
30
0
10
524.72675056716548
20
43.798878676648911
30
0
0
SPLINE
5
233
100
AcDbEntity
8
0
100
AcDbSpline
70
0
71
2
72
6
73
3
74
0
42
0.000000001
43
0.0000000001
44
0.0000000001
40
0
40
0
40
0
40
1
40
1
40
1
10
524.72675056716548
20
43.798878676648911
30
0
10
522.20985145827876
20
46.072228438611802
30
0
10
522.20985145827876
20
49.319851882215318
30
0
0
SPLINE
5
234
100
AcDbEntity
8
0
100
AcDbSpline
70
0
71
2
72
6
73
3
74
0
42
0.000000001
43
0.0000000001
44
0.0000000001
40
0
40
0
40
0
40
1
40
1
40
1
10
522.20985145827876
20
49.319851882215318
30
0
10
522.20985145827876
20
50.456536299939927
30
0
10
522.94055671950923
20
52.892258651014146
30
0
0
SPLINE
5
235
100
AcDbEntity
8
0
100
AcDbSpline
70
0
71
2
72
6
73
3
74
0
42
0.000000001
43
0.0000000001
44
0.0000000001
40
0
40
0
40
0
40
1
40
1
40
1
10
522.94055671950923
20
52.892258651014146
30
0
10
523.5900852229272
20
54.922020919080552
30
0
10
523.83365364333736
20
64.746106154676255
30
0
0
LINE
5
236
100
AcDbEntity
8
0
100
AcDbLine
10
523.83365364333736
20
64.746106154676255
30
0
11
524.07722206374751
21
76.762345320936021
31
0
0
LINE
5
237
100
AcDbEntity
8
0
100
AcDbLine
10
524.07722206374751
20
76.762345320936021
30
0
11
524.32082863113033
21
136.43758106922706
31
0
0
SPLINE
5
238
100
AcDbEntity
8
0
100
AcDbSpline
70
0
71
2
72
6
73
3
74
0
42
0.000000001
43
0.0000000001
44
0.0000000001
40
0
40
0
40
0
40
1
40
1
40
1
10
524.32082863113033
20
136.43758106922706
30
0
10
524.88914222976314
20
146.50524426197609
30
0
10
524.88914222976314
20
149.9964456627329
30
0
0
SPLINE
5
239
100
AcDbEntity
8
0
100
AcDbSpline
70
0
71
2
72
6
73
3
74
0
42
0.000000001
43
0.0000000001
44
0.0000000001
40
0
40
0
40
0
40
1
40
1
40
1
10
524.88914222976314
20
149.9964456627329
30
0
10
524.88914222976314
20
154.1371755669077
30
0
10
524.11784858962642
20
157.83135700916844
30
0
0
SPLINE
5
240
100
AcDbEntity
8
0
100
AcDbSpline
70
0
71
2
72
6
73
3
74
0
42
0.000000001
43
0.0000000001
44
0.0000000001
40
0
40
0
40
0
40
1
40
1
40
1
10
524.11784858962642
20
157.83135700916844
30
0
10
523.34651680251704
20
161.52553845142918
30
0
10
523.34651680251704
20
165.5038862297495
30
0
0
SPLINE
5
241
100
AcDbEntity
8
0
100
AcDbSpline
70
0
71
2
72
6
73
3
74
0
42
0.000000001
43
0.0000000001
44
0.0000000001
40
0
40
0
40
0
40
1
40
1
40
1
10
523.34651680251704
20
165.5038862297495
30
0
10
523.34651680251704
20
168.91390133595067
30
0
10
525.70106239577876
20
171.14664364552098
30
0
0
SPLINE
5
242
100
AcDbEntity
8
0
100
AcDbSpline
70
0
71
2
72
6
73
3
74
0
42
0.000000001
43
0.0000000001
44
0.0000000001
40
0
40
0
40
0
40
1
40
1
40
1
10
525.70106239577876
20
171.14664364552098
30
0
10
528.05556984206783
20
173.37939549183446
30
0
10
531.46560402175533
20
173.37939549183446
30
0
0
SPLINE
5
243
100
AcDbEntity
8
0
100
AcDbSpline
70
0
71
2
72
6
73
3
74
0
42
0.000000001
43
0.0000000001
44
0.0000000001
40
0
40
0
40
0
40
1
40
1
40
1
10
531.46560402175533
20
173.37939549183446
30
0
10
538.12324257156001
20
173.37939549183446
30
0
10
539.25990791579829
20
166.23460102772313
30
0
0
SPLINE
5
244
100
AcDbEntity
8
0
100
AcDbSpline
70
0
71
2
72
6
73
3
74
0
42
0.000000001
43
0.0000000001
44
0.0000000001
40
0
40
0
40
0
40
1
40
1
40
1
10
539.25990791579829
20
166.23460102772313
30
0
10
540.55896492263423
20
158.35910130238133
30
0
10
540.55896492263423
20
152.02621746754247
30
0
0
SPLINE
5
245
100
AcDbEntity
8
0
100
AcDbSpline
70
0
71
2
72
6
73
3
74
0
42
0.000000001
43
0.0000000001
44
0.0000000001
40
0
40
0
40
0
40
1
40
1
40
1
10
540.55896492263423
20
152.02621746754247
30
0
10
540.55896492263423
20
143.50117970203956
30
0
10
539.99065132400142
20
134.24543667530617
30
0
0
SPLINE
5
246
100
AcDbEntity
8
0
100
AcDbSpline
70
0
71
2
72
6
73
3
74
0
42
0.000000001
43
0.0000000001
44
0.0000000001
40
0
40
0
40
0
40
1
40
1
40
1
10
539.99065132400142
20
134.24543667530617
30
0
10
539.50347633620845
20
125.39563465809424
30
0
10
539.58469124099361
20
116.46464634632666
30
0
0
LINE
5
247
100
AcDbEntity
8
0
100
AcDbLine
10
539.58469124099361
20
116.46464634632666
30
0
11
539.66586799880611
21
109.31985188221533
31
0
0
SPLINE
5
248
100
AcDbEntity
8
0
100
AcDbSpline
70
0
71
2
72
6
73
3
74
0
42
0.000000001
43
0.0000000001
44
0.0000000001
40
0
40
0
40
0
40
1
40
1
40
1
10
539.66586799880611
20
109.31985188221533
30
0
10
546.32350654861079
20
118.25084019398291
30
0
10
553.91486854812251
20
122.67574597096045
30
0
0
SPLINE
5
249
100
AcDbEntity
8
0
100
AcDbSpline
70
0
71
2
72
6
73
3
74
0
42
0.000000001
43
0.0000000001
44
0.0000000001
40
0
40
0
40
0
40
1
40
1
40
1
10
553.91486854812251
20
122.67574597096045
30
0
10
561.50619240066158
20
127.10064221119482
30
0
10
570.03123970290767
20
127.10064221119482
30
0
0
SPLINE
5
250
100
AcDbEntity
8
0
100
AcDbSpline
70
0
71
2
72
6
73
3
74
0
42
0.000000001
43
0.0000000001
44
0.0000000001
40
0
40
0
40
0
40
1
40
1
40
1
10
570.03123970290767
20
127.10064221119482
30
0
10
583.5089084651147
20
127.10064221119482
30
0
10
588.54274482986079
20
118.33203602528174
30
0
0
SPLINE
5
251
100
AcDbEntity
8
0
100
AcDbSpline
70
0
71
2
72
6
73
3
74
0
42
0.000000001
43
0.0000000001
44
0.0000000001
40
0
40
0
40
0
40
1
40
1
40
1
10
588.54274482986079
20
118.33203602528174
30
0
10
592.11513252517329
20
112.16153431629736
30
0
10
592.60226936599361
20
97.547190673108886
30
0
0
LINE
5
252
100
AcDbEntity
8
0
100
AcDbLine
10
592.60226936599361
20
97.547190673108901
30
0
11
593.25179786941158
21
82.039750106092285
31
0
0
LINE
5
253
100
AcDbEntity
8
0
100
AcDbLine
10
593.25179786941158
20
82.039750106092285
30
0
11
594.87560005447017
21
65.152066237684082
31
0
0
SPLINE
5
254
100
AcDbEntity
8
0
100
AcDbSpline
70
0
71
2
72
6
73
3
74
0
42
0.000000001
43
0.0000000001
44
0.0000000001
40
0
40
0
40
0
40
1
40
1
40
1
10
594.87560005447017
20
65.152066237684068
30
0
10
596.01230354568111
20
55.652745253797349
30
0
10
597.6361057307397
20
48.426754958387193
30
0
0
SPLINE
5
255
100
AcDbEntity
8
0
100
AcDbSpline
70
0
71
2
72
6
73
3
74
0
42
0.000000001
43
0.0000000001
44
0.0000000001
40
0
40
0
40
0
40
1
40
1
40
1
10
597.6361057307397
20
48.426754958387193
30
0
10
597.96085090896236
20
47.046521193738755
30
0
10
597.96085090896236
20
46.072228438611802
30
0
0
SPLINE
5
256
100
AcDbEntity
8
0
100
AcDbSpline
70
0
71
2
72
6
73
3
74
0
42
0.000000001
43
0.0000000001
44
0.0000000001
40
0
40
0
40
0
40
1
40
1
40
1
10
597.96085090896236
20
46.072228438611802
30
0
10
597.96085090896236
20
42.743409163709458
30
0
10
595.52512855788814
20
40.510666854139146
30
0
0
SPLINE
5
257
100
AcDbEntity
8
0
100
AcDbSpline
70
0
71
2
72
6
73
3
74
0
42
0.000000001
43
0.0000000001
44
0.0000000001
40
0
40
0
40
0
40
1
40
1
40
1
10
595.52512855788814
20
40.510666854139146
30
0
10
593.08940620681392
20
38.277905471082505
30
0
10
589.67941017409908
20
38.277905471082505
30
0
0
SPLINE
5
258
100
AcDbEntity
8
0
100
AcDbSpline
70
0
71
2
72
6
73
3
74
0
42
0.000000001
43
0.0000000001
44
0.0000000001
40
0
40
0
40
0
40
1
40
1
40
1
10
648.21796150466548
20
38.521492964978989
30
0
10
634.57790107986079
20
38.521492964978989
30
0
10
624.75379677077876
20
48.589146620984849
30
0
0
SPLINE
5
259
100
AcDbEntity
8
0
100
AcDbSpline
70
0
71
2
72
6
73
3
74
0
42
0.000000001
43
0.0000000001
44
0.0000000001
40
0
40
0
40
0
40
1
40
1
40
1
10
624.75379677077876
20
48.589146620984849
30
0
10
613.79306526443111
20
59.793465621228989
30
0
10
613.22471351882564
20
78.710930831189941
30
0
0
SPLINE
5
260
100
AcDbEntity
8
0
100
AcDbSpline
70
0
71
2
72
6
73
3
74
0
42
0.000000001
43
0.0000000001
44
0.0000000001
40
0
40
0
40
0
40
1
40
1
40
1
10
613.22471351882564
20
78.710930831189941
30
0
10
612.73757667800533
20
97.06004429554541
30
0
10
622.4804660823022
20
111.02485943531592
30
0
0
SPLINE
5
261
100
AcDbEntity
8
0
100
AcDbSpline
70
0
71
2
72
6
73
3
74
0
42
0.000000001
43
0.0000000001
44
0.0000000001
40
0
40
0
40
0
40
1
40
1
40
1
10
654.1448947932397
20
127.50659275745947
30
0
10
670.38303108474361
20
127.50659275745947
30
0
10
678.74568672439204
20
112.64867115711768
30
0
0
SPLINE
5
262
100
AcDbEntity
8
0
100
AcDbSpline
70
0
71
2
72
6
73
3
74
0
42
0.000000001
43
0.0000000001
44
0.0000000001
40
0
40
0
40
0
40
1
40
1
40
1
10
678.74568672439204
20
112.64867115711768
30
0
10
685.40332527419673
20
100.63244152760107
30
0
10
685.15975685378658
20
83.744748122449707
30
0
0
SPLINE
5
263
100
AcDbEntity
8
0
100
AcDbSpline
70
0
71
2
72
6
73
3
74
0
42
0.000000001
43
0.0000000001
44
0.0000000001
40
0
40
0
40
0
40
1
40
1
40
1
10
685.15975685378658
20
83.744748122449707
30
0
10
684.91618843337642
20
65.720398909803208
30
0
10
675.74161262771236
20
52.973454482312974
30
0
0
SPLINE
5
264
100
AcDbEntity
8
0
100
AcDbSpline
70
0
71
2
72
6
73
3
74
0
42
0.000000001
43
0.0000000001
44
0.0000000001
40
0
40
0
40
0
40
1
40
1
40
1
10
634.49672432204829
20
99.658148772474121
30
0
10
629.21931953689204
20
90.483592040296386
30
0
10
629.21931953689204
20
78.710930831189941
30
0
0
SPLINE
5
265
100
AcDbEntity
8
0
100
AcDbSpline
70
0
71
2
72
6
73
3
74
0
42
0.000000001
43
0.0000000001
44
0.0000000001
40
0
40
0
40
0
40
1
40
1
40
1
10
629.21931953689204
20
78.710930831189941
30
0
10
629.21931953689204
20
66.938260085340332
30
0
10
635.63338966628658
20
60.361817366834458
30
0
0
SPLINE
5
266
100
AcDbEntity
8
0
100
AcDbSpline
70
0
71
2
72
6
73
3
74
0
42
0.000000001
43
0.0000000001
44
0.0000000001
40
0
40
0
40
0
40
1
40
1
40
1
10
635.63338966628658
20
60.361817366834458
30
0
10
640.99197120925533
20
54.922020919080552
30
0
10
648.21796150466548
20
54.922020919080552
30
0
0
SPLINE
5
267
100
AcDbEntity
8
0
100
AcDbSpline
70
0
71
2
72
6
73
3
74
0
42
0.000000001
43
0.0000000001
44
0.0000000001
40
0
40
0
40
0
40
1
40
1
40
1
10
662.75111885329829
20
61.092522628064927
30
0
10
669.65232582351314
20
67.912552840467285
30
0
10
670.05828590652095
20
79.522831923719238
30
0
0
SPLINE
5
268
100
AcDbEntity
8
0
100
AcDbSpline
70
0
71
2
72
6
73
3
74
0
42
0.000000001
43
0.0000000001
44
0.0000000001
40
0
40
0
40
0
40
1
40
1
40
1
10
670.05828590652095
20
79.522831923719238
30
0
10
671.19495125075923
20
110.94367314076025
30
0
10
653.08940620681392
20
111.02485943531592
30
0
0
SPLINE
5
269
100
AcDbEntity
8
0
100
AcDbSpline
70
0
71
2
72
6
73
3
74
0
42
0.000000001
43
0.0000000001
44
0.0000000001
40
0
40
0
40
0
40
1
40
1
40
1
10
768.38039131423579
20
103.31174183582861
30
0
10
767.81207771560298
20
93.162892348523926
30
0
10
760.26134224197017
20
93.162892348523926
30
0
0
SPLINE
5
270
100
AcDbEntity
8
0
100
AcDbSpline
70
0
71
2
72
6
73
3
74
0
42
0.000000001
43
0.0000000001
44
0.0000000001
40
0
40
0
40
0
40
1
40
1
40
1
10
760.26134224197017
20
93.162892348523926
30
0
10
753.27892036697017
20
93.162892348523926
30
0
10
753.27892036697017
20
101.20078373646338
30
0
0
SPLINE
5
271
100
AcDbEntity
8
0
100
AcDbSpline
70
0
71
2
72
6
73
3
74
0
42
0.000000001
43
0.0000000001
44
0.0000000001
40
0
40
0
40
0
40
1
40
1
40
1
10
753.27892036697017
20
101.20078373646338
30
0
10
753.27892036697017
20
102.74340916370947
30
0
10
753.03531379958736
20
106.88412953114111
30
0
0
LINE
5
272
100
AcDbEntity
8
0
100
AcDbLine
10
753.03531379958736
20
106.88412953114111
30
0
11
752.79178352614986
21
113.70415974354346
31
0
0
SPLINE
5
273
100
AcDbEntity
8
0
100
AcDbSpline
70
0
71
2
72
6
73
3
74
0
42
0.000000001
43
0.0000000001
44
0.0000000001
40
0
40
0
40
0
40
1
40
1
40
1
10
752.79178352614986
20
113.70415974354346
30
0
10
739.96364326736079
20
112.16153431629736
30
0
10
732.25047798415767
20
106.47817898487646
30
0
0
SPLINE
5
274
100
AcDbEntity
8
0
100
AcDbSpline
70
0
71
2
72
6
73
3
74
0
42
0.000000001
43
0.0000000001
44
0.0000000001
40
0
40
0
40
0
40
1
40
1
40
1
10
732.25047798415767
20
106.47817898487646
30
0
10
725.02452583572017
20
101.20078373646338
30
0
10
720.23425789138423
20
90.564778334852051
30
0
0
LINE
5
275
100
AcDbEntity
8
0
100
AcDbLine
10
720.23425789138423
20
90.564778334852036
30
0
11
720.39661140700923
21
46.072228438611816
31
0
0
SPLINE
5
276
100
AcDbEntity
8
0
100
AcDbSpline
70
0
71
2
72
6
73
3
74
0
42
0.000000001
43
0.0000000001
44
0.0000000001
40
0
40
0
40
0
40
1
40
1
40
1
10
720.39661140700923
20
46.072228438611802
30
0
10
720.39661140700923
20
37.871964461561021
30
0
10
712.35873909255611
20
37.871964461561021
30
0
0
SPLINE
5
277
100
AcDbEntity
8
0
100
AcDbSpline
70
0
71
2
72
6
73
3
74
0
42
0.000000001
43
0.0000000001
44
0.0000000001
40
0
40
0
40
0
40
1
40
1
40
1
10
712.35873909255611
20
37.871964461561021
30
0
10
705.21396370193111
20
37.871964461561021
30
0
10
705.21396370193111
20
46.072228438611802
30
0
0
LINE
5
278
100
AcDbEntity
8
0
100
AcDbLine
10
705.21396370193111
20
46.072228438611802
30
0
11
705.21396370193111
21
103.06817341541844
31
0
0
SPLINE
5
279
100
AcDbEntity
8
0
100
AcDbSpline
70
0
71
2
72
6
73
3
74
0
42
0.000000001
43
0.0000000001
44
0.0000000001
40
0
40
0
40
0
40
1
40
1
40
1
10
705.21396370193111
20
103.06817341541846
30
0
10
705.21396370193111
20
105.74746418690283
30
0
10
705.41690559646236
20
111.10605526661475
30
0
0
SPLINE
5
280
100
AcDbEntity
8
0
100
AcDbSpline
70
0
71
2
72
6
73
3
74
0
42
0.000000001
43
0.0000000001
44
0.0000000001
40
0
40
0
40
0
40
1
40
1
40
1
10
705.41690559646236
20
111.10605526661475
30
0
10
705.61992378493892
20
116.46464634632666
30
0
10
705.61992378493892
20
119.14393711781103
30
0
0
SPLINE
5
281
100
AcDbEntity
8
0
100
AcDbSpline
70
0
71
2
72
6
73
3
74
0
42
0.000000001
43
0.0000000001
44
0.0000000001
40
0
40
0
40
0
40
1
40
1
40
1
10
705.61992378493892
20
119.14393711781103
30
0
10
705.61992378493892
20
127.34421063160498
30
0
10
712.76469917556392
20
127.34421063160498
30
0
0
SPLINE
5
282
100
AcDbEntity
8
0
100
AcDbSpline
70
0
71
2
72
6
73
3
74
0
42
0.000000001
43
0.0000000001
44
0.0000000001
40
0
40
0
40
0
40
1
40
1
40
1
10
712.76469917556392
20
127.34421063160498
30
0
10
720.72139473220454
20
127.34421063160498
30
0
10
720.80257149001704
20
113.86654186939795
30
0
0
SPLINE
5
283
100
AcDbEntity
8
0
100
AcDbSpline
70
0
71
2
72
6
73
3
74
0
42
0.000000001
43
0.0000000001
44
0.0000000001
40
0
40
0
40
0
40
1
40
1
40
1
10
720.80257149001704
20
113.86654186939795
30
0
10
736.39125557204829
20
128.88683605885109
30
0
10
755.38989753982173
20
128.88683605885109
30
0
0
SPLINE
5
284
100
AcDbEntity
8
0
100
AcDbSpline
70
0
71
2
72
6
73
3
74
0
42
0.000000001
43
0.0000000001
44
0.0000000001
40
0
40
0
40
0
40
1
40
1
40
1
10
755.38989753982173
20
128.88683605885109
30
0
10
761.96635933181392
20
128.88683605885109
30
0
10
765.21396370193111
20
123.93419552540381
30
0
0
SPLINE
5
285
100
AcDbEntity
8
0
100
AcDbSpline
70
0
71
2
72
6
73
3
74
0
42
0.000000001
43
0.0000000001
44
0.0000000001
40
0
40
0
40
0
40
1
40
1
40
1
10
765.21396370193111
20
123.93419552540381
30
0
10
768.46156807204829
20
118.98156452869971
30
0
10
768.46156807204829
20
108.99508763050635
30
0
0
SPLINE
5
286
100
AcDbEntity
8
0
100
AcDbSpline
70
0
71
2
72
6
73
3
74
0
42
0.000000001
43
0.0000000001
44
0.0000000001
40
0
40
0
40
0
40
1
40
1
40
1
10
768.46156807204829
20
108.99508763050635
30
0
10
768.46156807204829
20
104.77317143177588
30
0
10
768.38039131423579
20
103.31174183582861
30
0
0
SPLINE
5
287
100
AcDbEntity
8
0
100
AcDbSpline
70
0
71
2
72
6
73
3
74
0
42
0.000000001
43
0.0000000001
44
0.0000000001
40
0
40
0
40
0
40
1
40
1
40
1
10
847.37903328200923
20
37.547200209852036
30
0
10
840.39661140700923
20
37.547200209852036
30
0
10
839.50351448318111
20
45.179131514783677
30
0
0
LINE
5
288
100
AcDbEntity
8
0
100
AcDbLine
10
839.50351448318111
20
45.17913151478367
30
0
11
837.23018379470454
21
62.959912307020005
31
0
0
SPLINE
5
289
100
AcDbEntity
8
0
100
AcDbSpline
70
0
71
2
72
6
73
3
74
0
42
0.000000001
43
0.0000000001
44
0.0000000001
40
0
40
0
40
0
40
1
40
1
40
1
10
837.23018379470454
20
62.959912307020005
30
0
10
836.09348030349361
20
72.459233290906738
30
0
10
836.09348030349361
20
80.740693099256347
30
0
0
SPLINE
5
290
100
AcDbEntity
8
0
100
AcDbSpline
70
0
71
2
72
6
73
3
74
0
42
0.000000001
43
0.0000000001
44
0.0000000001
40
0
40
0
40
0
40
1
40
1
40
1
10
836.09348030349361
20
80.740693099256347
30
0
10
836.09348030349361
20
83.014042861219238
30
0
10
836.37767524978267
20
88.453820235486816
30
0
0
SPLINE
5
291
100
AcDbEntity
8
0
100
AcDbSpline
70
0
71
2
72
6
73
3
74
0
42
0.000000001
43
0.0000000001
44
0.0000000001
40
0
40
0
40
0
40
1
40
1
40
1
10
836.37767524978267
20
88.453820235486816
30
0
10
836.66187019607173
20
93.893607146497558
30
0
10
836.66187019607173
20
96.166947371717285
30
0
0
SPLINE
5
292
100
AcDbEntity
8
0
100
AcDbSpline
70
0
71
2
72
6
73
3
74
0
42
0.000000001
43
0.0000000001
44
0.0000000001
40
0
40
0
40
0
40
1
40
1
40
1
10
836.66187019607173
20
96.166947371717285
30
0
10
836.66187019607173
20
113.70415974354346
30
0
10
830.16658516189204
20
113.70415974354346
30
0
0
SPLINE
5
293
100
AcDbEntity
8
0
100
AcDbSpline
70
0
71
2
72
6
73
3
74
0
42
0.000000001
43
0.0000000001
44
0.0000000001
40
0
40
0
40
0
40
1
40
1
40
1
10
830.16658516189204
20
113.70415974354346
30
0
10
821.07318611404048
20
113.70415974354346
30
0
10
812.79170723220454
20
102.9057817528208
30
0
0
SPLINE
5
294
100
AcDbEntity
8
0
100
AcDbSpline
70
0
71
2
72
6
73
3
74
0
42
0.000000001
43
0.0000000001
44
0.0000000001
40
0
40
0
40
0
40
1
40
1
40
1
10
812.79170723220454
20
102.9057817528208
30
0
10
805.32222481032954
20
93.081696517225097
30
0
10
801.10027046462642
20
78.061402327771972
30
0
0
SPLINE
5
295
100
AcDbEntity
8
0
100
AcDbSpline
70
0
71
2
72
6
73
3
74
0
42
0.000000001
43
0.0000000001
44
0.0000000001
40
0
40
0
40
0
40
1
40
1
40
1
10
801.10027046462642
20
78.061402327771972
30
0
10
800.93791694900142
20
74.894955641980957
30
0
10
800.36952705642329
20
70.104706771131347
30
0
0
SPLINE
5
296
100
AcDbEntity
8
0
100
AcDbSpline
70
0
71
2
72
6
73
3
74
0
42
0.000000001
43
0.0000000001
44
0.0000000001
40
0
40
0
40
0
40
1
40
1
40
1
10
800.36952705642329
20
70.104706771131347
30
0
10
799.88239021560298
20
66.045163161512193
30
0
10
799.88239021560298
20
62.229187972303208
30
0
0
SPLINE
5
297
100
AcDbEntity
8
0
100
AcDbSpline
70
0
71
2
72
6
73
3
74
0
42
0.000000001
43
0.0000000001
44
0.0000000001
40
0
40
0
40
0
40
1
40
1
40
1
10
799.88239021560298
20
62.229187972303208
30
0
10
799.88239021560298
20
59.793465621228989
30
0
10
800.36952705642329
20
54.922020919080552
30
0
0
SPLINE
5
298
100
AcDbEntity
8
0
100
AcDbSpline
70
0
71
2
72
6
73
3
74
0
42
0.000000001
43
0.0000000001
44
0.0000000001
40
0
40
0
40
0
40
1
40
1
40
1
10
800.36952705642329
20
54.922020919080552
30
0
10
800.85666389724361
20
50.050576216932114
30
0
10
800.85666389724361
20
47.614853865857896
30
0
0
SPLINE
5
299
100
AcDbEntity
8
0
100
AcDbSpline
70
0
71
2
72
6
73
3
74
0
42
0.000000001
43
0.0000000001
44
0.0000000001
40
0
40
0
40
0
40
1
40
1
40
1
10
800.85666389724361
20
47.614853865857896
30
0
10
800.85666389724361
20
43.961270339246568
30
0
10
798.62392158767329
20
41.687920577283677
30
0
0
SPLINE
5
300
100
AcDbEntity
8
0
100
AcDbSpline
70
0
71
2
72
6
73
3
74
0
42
0.000000001
43
0.0000000001
44
0.0000000001
40
0
40
0
40
0
40
1
40
1
40
1
10
798.62392158767329
20
41.687920577283677
30
0
10
796.39117927810298
20
39.414589888807114
30
0
10
792.89996834060298
20
39.414589888807114
30
0
0
SPLINE
5
301
100
AcDbEntity
8
0
100
AcDbSpline
70
0
71
2
72
6
73
3
74
0
42
0.000000001
43
0.0000000001
44
0.0000000001
40
0
40
0
40
0
40
1
40
1
40
1
10
792.89996834060298
20
39.414589888807114
30
0
10
789.32758064529048
20
39.414589888807114
30
0
10
787.13542671462642
20
41.687920577283677
30
0
0
SPLINE
5
302
100
AcDbEntity
8
0
100
AcDbSpline
70
0
71
2
72
6
73
3
74
0
42
0.000000001
43
0.0000000001
44
0.0000000001
40
0
40
0
40
0
40
1
40
1
40
1
10
787.13542671462642
20
41.687920577283677
30
0
10
784.94327278396236
20
43.961270339246568
30
0
10
784.94327278396236
20
47.614853865857896
30
0
0
SPLINE
5
303
100
AcDbEntity
8
0
100
AcDbSpline
70
0
71
2
72
6
73
3
74
0
42
0.000000001
43
0.0000000001
44
0.0000000001
40
0
40
0
40
0
40
1
40
1
40
1
10
784.94327278396236
20
47.614853865857896
30
0
10
784.94327278396236
20
50.050576216932114
30
0
10
784.41554756423579
20
54.922020919080552
30
0
0
SPLINE
5
304
100
AcDbEntity
8
0
100
AcDbSpline
70
0
71
2
72
6
73
3
74
0
42
0.000000001
43
0.0000000001
44
0.0000000001
40
0
40
0
40
0
40
1
40
1
40
1
10
784.41554756423579
20
54.922020919080552
30
0
10
783.88782234450923
20
59.793465621228989
30
0
10
783.88782234450923
20
62.229187972303208
30
0
0
SPLINE
5
305
100
AcDbEntity
8
0
100
AcDbSpline
70
0
71
2
72
6
73
3
74
0
42
0.000000001
43
0.0000000001
44
0.0000000001
40
0
40
0
40
0
40
1
40
1
40
1
10
783.88782234450923
20
62.229187972303208
30
0
10
783.88782234450923
20
70.59184361195166
30
0
10
785.06511421462642
20
85.409167296644043
30
0
0
SPLINE
5
306
100
AcDbEntity
8
0
100
AcDbSpline
70
0
71
2
72
6
73
3
74
0
42
0.000000001
43
0.0000000001
44
0.0000000001
40
0
40
0
40
0
40
1
40
1
40
1
10
785.06511421462642
20
85.409167296644043
30
0
10
786.24232979079829
20
100.22649098133643
30
0
10
786.24232979079829
20
108.5891370842417
30
0
0
SPLINE
5
307
100
AcDbEntity
8
0
100
AcDbSpline
70
0
71
2
72
6
73
3
74
0
42
0.000000001
43
0.0000000001
44
0.0000000001
40
0
40
0
40
0
40
1
40
1
40
1
10
786.24232979079829
20
108.5891370842417
30
0
10
786.24232979079829
20
111.18724156117041
30
0
10
785.95821113845454
20
116.30226422047217
30
0
0
SPLINE
5
308
100
AcDbEntity
8
0
100
AcDbSpline
70
0
71
2
72
6
73
3
74
0
42
0.000000001
43
0.0000000001
44
0.0000000001
40
0
40
0
40
0
40
1
40
1
40
1
10
785.95821113845454
20
116.30226422047217
30
0
10
785.67401619216548
20
121.41728687977393
30
0
10
785.67401619216548
20
124.01538181995947
30
0
0
SPLINE
5
309
100
AcDbEntity
8
0
100
AcDbSpline
70
0
71
2
72
6
73
3
74
0
42
0.000000001
43
0.0000000001
44
0.0000000001
40
0
40
0
40
0
40
1
40
1
40
1
10
785.67401619216548
20
124.01538181995947
30
0
10
785.67401619216548
20
127.50659275745947
30
0
10
787.98793525954829
20
129.7393350670298
30
0
0
SPLINE
5
310
100
AcDbEntity
8
0
100
AcDbSpline
70
0
71
2
72
6
73
3
74
0
42
0.000000001
43
0.0000000001
44
0.0000000001
40
0
40
0
40
0
40
1
40
1
40
1
10
787.98793525954829
20
129.7393350670298
30
0
10
790.30193062087642
20
131.97209645008644
30
0
10
793.71188850661861
20
131.97209645008644
30
0
0
SPLINE
5
311
100
AcDbEntity
8
0
100
AcDbSpline
70
0
71
2
72
6
73
3
74
0
42
0.000000001
43
0.0000000001
44
0.0000000001
40
0
40
0
40
0
40
1
40
1
40
1
10
793.71188850661861
20
131.97209645008644
30
0
10
801.18144722243892
20
131.97209645008644
30
0
10
801.91219063064204
20
121.41728687977393
30
0
0
LINE
5
312
100
AcDbEntity
8
0
100
AcDbLine
10
801.91219063064204
20
121.41728687977393
30
0
11
802.15572090407954
21
111.91796589588721
31
0
0
SPLINE
5
313
100
AcDbEntity
8
0
100
AcDbSpline
70
0
71
2
72
6
73
3
74
0
42
0.000000001
43
0.0000000001
44
0.0000000001
40
0
40
0
40
0
40
1
40
1
40
1
10
802.15572090407954
20
111.91796589588721
30
0
10
815.79578132888423
20
130.10470677113136
30
0
10
830.16658516189204
20
130.10470677113136
30
0
0
SPLINE
5
314
100
AcDbEntity
8
0
100
AcDbSpline
70
0
71
2
72
6
73
3
74
0
42
0.000000001
43
0.0000000001
44
0.0000000001
40
0
40
0
40
0
40
1
40
1
40
1
10
830.16658516189204
20
130.10470677113136
30
0
10
843.15707893630611
20
130.10470677113136
30
0
10
848.27213020583736
20
118.65680027699072
30
0
0
SPLINE
5
315
100
AcDbEntity
8
0
100
AcDbSpline
70
0
71
2
72
6
73
3
74
0
42
0.000000001
43
0.0000000001
44
0.0000000001
40
0
40
0
40
0
40
1
40
1
40
1
10
848.27213020583736
20
118.65680027699072
30
0
10
851.76334114333736
20
111.02486897205908
30
0
10
852.08812446853267
20
96.085751540418457
30
0
0
LINE
5
316
100
AcDbEntity
8
0
100
AcDbLine
10
852.08812446853267
20
96.085751540418457
30
0
11
852.08812446853267
21
87.885487563367676
31
0
0
LINE
5
317
100
AcDbEntity
8
0
100
AcDbLine
10
852.08812446853267
20
87.885487563367676
30
0
11
852.00687141677486
21
80.334742552991699
31
0
0
SPLINE
5
318
100
AcDbEntity
8
0
100
AcDbSpline
70
0
71
2
72
6
73
3
74
0
42
0.000000001
43
0.0000000001
44
0.0000000001
40
0
40
0
40
0
40
1
40
1
40
1
10
852.00687141677486
20
80.334742552991699
30
0
10
852.00687141677486
20
73.595908171888183
30
0
10
853.75247688552486
20
62.919323928113755
30
0
0
SPLINE
5
319
100
AcDbEntity
8
0
100
AcDbSpline
70
0
71
2
72
6
73
3
74
0
42
0.000000001
43
0.0000000001
44
0.0000000001
40
0
40
0
40
0
40
1
40
1
40
1
10
853.75247688552486
20
62.919323928113755
30
0
10
855.49808235427486
20
52.242730147596177
30
0
10
855.49808235427486
20
45.585091597791489
30
0
0
SPLINE
5
320
100
AcDbEntity
8
0
100
AcDbSpline
70
0
71
2
72
6
73
3
74
0
42
0.000000001
43
0.0000000001
44
0.0000000001
40
0
40
0
40
0
40
1
40
1
40
1
10
855.49808235427486
20
45.585091597791489
30
0
10
855.49808235427486
20
42.012684828992661
30
0
10
853.18416328689204
20
39.779942519422349
30
0
0
SPLINE
5
321
100
AcDbEntity
8
0
100
AcDbSpline
70
0
71
2
72
6
73
3
74
0
42
0.000000001
43
0.0000000001
44
0.0000000001
40
0
40
0
40
0
40
1
40
1
40
1
10
853.18416328689204
20
39.779942519422349
30
0
10
850.87024421950923
20
37.547200209852036
30
0
10
847.37903328200923
20
37.547200209852036
30
0
0
SPLINE
5
322
100
AcDbEntity
8
0
100
AcDbSpline
70
0
71
2
72
6
73
3
74
0
42
0.000000001
43
0.0000000001
44
0.0000000001
40
0
40
0
40
0
40
1
40
1
40
1
10
926.94598884841548
20
105.8286504814585
30
0
10
922.48050422927486
20
105.8286504814585
30
0
10
920.69431038161861
20
108.83271504139502
30
0
0
SPLINE
5
323
100
AcDbEntity
8
0
100
AcDbSpline
70
0
71
2
72
6
73
3
74
0
42
0.000000001
43
0.0000000001
44
0.0000000001
40
0
40
0
40
0
40
1
40
1
40
1
10
920.69431038161861
20
108.83271504139502
30
0
10
919.47643013259517
20
110.94367314076025
30
0
10
918.58333320876704
20
117.60131169056494
30
0
0
SPLINE
5
324
100
AcDbEntity
8
0
100
AcDbSpline
70
0
71
2
72
6
73
3
74
0
42
0.000000001
43
0.0000000001
44
0.0000000001
40
0
40
0
40
0
40
1
40
1
40
1
10
918.58333320876704
20
117.60131169056494
30
0
10
912.49400825759517
20
116.05868626331885
30
0
10
899.82829780837642
20
111.91796589588721
30
0
0
SPLINE
5
325
100
AcDbEntity
8
0
100
AcDbSpline
70
0
71
2
72
6
73
3
74
0
42
0.000000001
43
0.0000000001
44
0.0000000001
40
0
40
0
40
0
40
1
40
1
40
1
10
899.82829780837642
20
111.91796589588721
30
0
10
886.75655098220454
20
106.72174740528662
30
0
10
886.67537422439204
20
99.08981610035498
30
0
0
SPLINE
5
326
100
AcDbEntity
8
0
100
AcDbSpline
70
0
71
2
72
6
73
3
74
0
42
0.000000001
43
0.0000000001
44
0.0000000001
40
0
40
0
40
0
40
1
40
1
40
1
10
886.67537422439204
20
99.08981610035498
30
0
10
889.11105842849361
20
98.196709639783691
30
0
10
891.46564216872798
20
97.790768630262207
30
0
0
SPLINE
5
327
100
AcDbEntity
8
0
100
AcDbSpline
70
0
71
2
72
6
73
3
74
0
42
0.000000001
43
0.0000000001
44
0.0000000001
40
0
40
0
40
0
40
1
40
1
40
1
10
891.46564216872798
20
97.790768630262207
30
0
10
910.13950081130611
20
94.461939818616699
30
0
10
919.23289985915767
20
88.616202361341308
30
0
0
SPLINE
5
328
100
AcDbEntity
8
0
100
AcDbSpline
70
0
71
2
72
6
73
3
74
0
42
0.000000001
43
0.0000000001
44
0.0000000001
40
0
40
0
40
0
40
1
40
1
40
1
10
919.23289985915767
20
88.616202361341308
30
0
10
932.46700020095454
20
80.091174132581543
30
0
10
932.46700020095454
20
63.934205062146958
30
0
0
SPLINE
5
329
100
AcDbEntity
8
0
100
AcDbSpline
70
0
71
2
72
6
73
3
74
0
42
0.000000001
43
0.0000000001
44
0.0000000001
40
0
40
0
40
0
40
1
40
1
40
1
10
932.46700020095454
20
63.934205062146958
30
0
10
932.46700020095454
20
50.700104720350083
30
0
10
921.01909370681392
20
43.961270339246568
30
0
0
SPLINE
5
330
100
AcDbEntity
8
0
100
AcDbSpline
70
0
71
2
72
6
73
3
74
0
42
0.000000001
43
0.0000000001
44
0.0000000001
40
0
40
0
40
0
40
1
40
1
40
1
10
921.01909370681392
20
43.961270339246568
30
0
10
911.51973457595454
20
38.440297133680161
30
0
10
896.98657722732173
20
38.440297133680161
30
0
0
SPLINE
5
331
100
AcDbEntity
8
0
100
AcDbSpline
70
0
71
2
72
6
73
3
74
0
42
0.000000001
43
0.0000000001
44
0.0000000001
40
0
40
0
40
0
40
1
40
1
40
1
10
896.98657722732173
20
38.440297133680161
30
0
10
886.35059089919673
20
38.440297133680161
30
0
10
876.68887825271236
20
42.012684828992661
30
0
0
SPLINE
5
332
100
AcDbEntity
8
0
100
AcDbSpline
70
0
71
2
72
6
73
3
74
0
42
0.000000001
43
0.0000000001
44
0.0000000001
40
0
40
0
40
0
40
1
40
1
40
1
10
876.68887825271236
20
42.012684828992661
30
0
10
864.18552131911861
20
46.559365279432114
30
0
10
864.18552131911861
20
54.678452498670396
30
0
0
SPLINE
5
333
100
AcDbEntity
8
0
100
AcDbSpline
70
0
71
2
72
6
73
3
74
0
42
0.000000001
43
0.0000000001
44
0.0000000001
40
0
40
0
40
0
40
1
40
1
40
1
10
864.18552131911861
20
54.678452498670396
30
0
10
864.18552131911861
20
57.926095015760239
30
0
10
866.74304695388423
20
60.361817366834458
30
0
0
SPLINE
5
334
100
AcDbEntity
8
0
100
AcDbSpline
70
0
71
2
72
6
73
3
74
0
42
0.000000001
43
0.0000000001
44
0.0000000001
40
0
40
0
40
0
40
1
40
1
40
1
10
866.74304695388423
20
60.361817366834458
30
0
10
869.30057258864986
20
62.797539717908677
30
0
10
872.54817695876704
20
62.797539717908677
30
0
0
SPLINE
5
335
100
AcDbEntity
8
0
100
AcDbSpline
70
0
71
2
72
6
73
3
74
0
42
0.000000001
43
0.0000000001
44
0.0000000001
40
0
40
0
40
0
40
1
40
1
40
1
10
872.54817695876704
20
62.797539717908677
30
0
10
875.06511421462642
20
62.797539717908677
30
0
10
879.04346199294673
20
58.900368697400864
30
0
0
SPLINE
5
336
100
AcDbEntity
8
0
100
AcDbSpline
70
0
71
2
72
6
73
3
74
0
42
0.000000001
43
0.0000000001
44
0.0000000001
40
0
40
0
40
0
40
1
40
1
40
1
10
879.04346199294673
20
58.900368697400864
30
0
10
880.99200935622798
20
57.032979018445786
30
0
10
887.81207771560298
20
55.815117842908677
30
0
0
SPLINE
5
337
100
AcDbEntity
8
0
100
AcDbSpline
70
0
71
2
72
6
73
3
74
0
42
0.000000001
43
0.0000000001
44
0.0000000001
40
0
40
0
40
0
40
1
40
1
40
1
10
887.81207771560298
20
55.815117842908677
30
0
10
893.25183601638423
20
54.840844161268052
30
0
10
896.98657722732173
20
54.840844161268052
30
0
0
SPLINE
5
338
100
AcDbEntity
8
0
100
AcDbSpline
70
0
71
2
72
6
73
3
74
0
42
0.000000001
43
0.0000000001
44
0.0000000001
40
0
40
0
40
0
40
1
40
1
40
1
10
896.98657722732173
20
54.840844161268052
30
0
10
903.80664558669673
20
54.840844161268052
30
0
10
909.00287361404048
20
56.464646346326646
30
0
0
SPLINE
5
339
100
AcDbEntity
8
0
100
AcDbSpline
70
0
71
2
72
6
73
3
74
0
42
0.000000001
43
0.0000000001
44
0.0000000001
40
0
40
0
40
0
40
1
40
1
40
1
10
909.00287361404048
20
56.464646346326646
30
0
10
916.55360908767329
20
58.819191939588364
30
0
10
916.55360908767329
20
63.934205062146958
30
0
0
SPLINE
5
340
100
AcDbEntity
8
0
100
AcDbSpline
70
0
71
2
72
6
73
3
74
0
42
0.000000001
43
0.0000000001
44
0.0000000001
40
0
40
0
40
0
40
1
40
1
40
1
10
916.55360908767329
20
63.934205062146958
30
0
10
916.55360908767329
20
74.976151473279785
30
0
10
901.12735481521236
20
78.873312957044433
30
0
0
LINE
5
341
100
AcDbEntity
8
0
100
AcDbLine
10
901.12735481521236
20
78.873312957044448
30
0
11
892.68352241775142
21
80.740693099256347
31
0
0
SPLINE
5
342
100
AcDbEntity
8
0
100
AcDbSpline
70
0
71
2
72
6
73
3
74
0
42
0.000000001
43
0.0000000001
44
0.0000000001
40
0
40
0
40
0
40
1
40
1
40
1
10
892.68352241775142
20
80.740693099256347
30
0
10
881.88510628005611
20
83.095229155774902
30
0
10
877.33844490310298
20
86.261666304822754
30
0
0
SPLINE
5
343
100
AcDbEntity
8
0
100
AcDbSpline
70
0
71
2
72
6
73
3
74
0
42
0.000000001
43
0.0000000001
44
0.0000000001
40
0
40
0
40
0
40
1
40
1
40
1
10
877.33844490310298
20
86.261666304822754
30
0
10
870.76198311111079
20
90.808346755262207
30
0
10
870.76198311111079
20
99.982913024183105
30
0
0
SPLINE
5
344
100
AcDbEntity
8
0
100
AcDbSpline
70
0
71
2
72
6
73
3
74
0
42
0.000000001
43
0.0000000001
44
0.0000000001
40
0
40
0
40
0
40
1
40
1
40
1
10
870.76198311111079
20
99.982913024183105
30
0
10
870.76198311111079
20
116.95178318714697
30
0
10
886.75655098220454
20
124.17777348255713
30
0
0
SPLINE
5
345
100
AcDbEntity
8
0
100
AcDbSpline
70
0
71
2
72
6
73
3
74
0
42
0.000000001
43
0.0000000001
44
0.0000000001
40
0
40
0
40
0
40
1
40
1
40
1
10
886.75655098220454
20
124.17777348255713
30
0
10
891.62799568435298
20
126.36992741322119
30
0
10
902.34515877029048
20
129.41458035206398
30
0
0
SPLINE
5
346
100
AcDbEntity
8
0
100
AcDbSpline
70
0
71
2
72
6
73
3
74
0
42
0.000000001
43
0.0000000001
44
0.0000000001
40
0
40
0
40
0
40
1
40
1
40
1
10
902.34515877029048
20
129.41458035206398
30
0
10
913.06239815017329
20
132.45923329090675
30
0
10
917.69023628493892
20
134.57019139027199
30
0
0
SPLINE
5
347
100
AcDbEntity
8
0
100
AcDbSpline
70
0
71
2
72
6
73
3
74
0
42
0.000000001
43
0.0000000001
44
0.0000000001
40
0
40
0
40
0
40
1
40
1
40
1
10
917.69023628493892
20
134.57019139027199
30
0
10
921.01909370681392
20
136.03163052296242
30
0
10
924.91626472732173
20
136.03163052296242
30
0
0
SPLINE
5
348
100
AcDbEntity
8
0
100
AcDbSpline
70
0
71
2
72
6
73
3
74
0
42
0.000000001
43
0.0000000001
44
0.0000000001
40
0
40
0
40
0
40
1
40
1
40
1
10
924.91626472732173
20
136.03163052296242
30
0
10
928.40739937087642
20
136.03163052296242
30
0
10
930.64021797439204
20
133.75829029774269
30
0
0
SPLINE
5
349
100
AcDbEntity
8
0
100
AcDbSpline
70
0
71
2
72
6
73
3
74
0
42
0.000000001
43
0.0000000001
44
0.0000000001
40
0
40
0
40
0
40
1
40
1
40
1
10
930.64021797439204
20
133.75829029774269
30
0
10
932.87296028396236
20
131.48495007252296
30
0
10
932.87296028396236
20
127.83135700916846
30
0
0
SPLINE
5
350
100
AcDbEntity
8
0
100
AcDbSpline
70
0
71
2
72
6
73
3
74
0
42
0.000000001
43
0.0000000001
44
0.0000000001
40
0
40
0
40
0
40
1
40
1
40
1
10
932.87296028396236
20
127.83135700916846
30
0
10
932.87296028396236
20
125.47683048939307
30
0
10
933.88782234450923
20
120.93013096546728
30
0
0
SPLINE
5
351
100
AcDbEntity
8
0
100
AcDbSpline
70
0
71
2
72
6
73
3
74
0
42
0.000000001
43
0.0000000001
44
0.0000000001
40
0
40
0
40
0
40
1
40
1
40
1
10
933.88782234450923
20
120.93013096546728
30
0
10
934.90268440505611
20
116.38345051502783
30
0
10
934.90268440505611
20
114.02892399525244
30
0
0
SPLINE
5
352
100
AcDbEntity
8
0
100
AcDbSpline
70
0
71
2
72
6
73
3
74
0
42
0.000000001
43
0.0000000001
44
0.0000000001
40
0
40
0
40
0
40
1
40
1
40
1
10
934.90268440505611
20
114.02892399525244
30
0
10
934.90268440505611
20
110.37534046864111
30
0
10
932.66994209548579
20
108.10199070667822
30
0
0
SPLINE
5
353
100
AcDbEntity
8
0
100
AcDbSpline
70
0
71
2
72
6
73
3
74
0
42
0.000000001
43
0.0000000001
44
0.0000000001
40
0
40
0
40
0
40
1
40
1
40
1
10
932.66994209548579
20
108.10199070667822
30
0
10
930.43719978591548
20
105.8286504814585
30
0
10
926.94598884841548
20
105.8286504814585
30
0
0
CIRCLE
5
354
100
AcDbEntity
8
0
100
AcDbCircle
10
15
20
185
30
0
40
2.0000000000000031
210
0
220
0
230
1
0
CIRCLE
5
355
100
AcDbEntity
8
0
100
AcDbCircle
10
985
20
185
30
0
40
2.0000000000000377
210
0
220
0
230
1
0
CIRCLE
5
356
100
AcDbEntity
8
0
100
AcDbCircle
10
985
20
15
30
0
40
2.0000000000000115
210
0
220
0
230
1
0
CIRCLE
5
357
100
AcDbEntity
8
0
100
AcDbCircle
10
15
20
15
30
0
40
2
210
0
220
0
230
1
0
SPLINE
5
358
100
AcDbEntity
8
0
100
AcDbSpline
70
0
71
2
72
6
73
3
74
0
42
0.000000001
43
0.0000000001
44
0.0000000001
40
0
40
0
40
0
40
0.47006354920314974
40
0.47006354920314974
40
0.47006354920314974
10
258.50217552444093
20
112.56749439930516
30
0
10
263.73075924520981
20
119.89513966905939
30
0
10
270.60981050543069
20
123.77832599601128
30
0
0
SPLINE
5
359
100
AcDbEntity
8
0
100
AcDbSpline
70
0
71
2
72
6
73
3
74
0
42
0.000000001
43
0.0000000001
44
0.0000000001
40
0.61915737463812204
40
0.61915737463812204
40
0.61915737463812204
40
1
40
1
40
1
10
275.13961837436398
20
125.89512959088219
30
0
10
281.13711387012586
20
128.15612126087743
30
0
10
288.21799965163819
20
128.15612126087743
30
0
0
LINE
5
360
100
AcDbEntity
8
0
100
AcDbLine
10
290.65306189004252
20
80.795434692189332
30
0
11
284.68250150501166
21
93.599342757210906
31
0
0
LINE
5
361
100
AcDbEntity
8
0
100
AcDbLine
10
276.86097299676373
20
110.37266489900611
30
0
11
270.60981050543069
21
123.77832599601126
31
0
0
LINE
5
362
100
AcDbEntity
8
0
100
AcDbLine
10
275.13961837436398
20
125.89512959088219
30
0
11
281.38379523054863
21
112.50444897067494
31
0
0
LINE
5
363
100
AcDbEntity
8
0
100
AcDbLine
10
289.1828851014177
20
95.779266123065213
30
0
11
295.17272528922837
21
82.934024110327883
31
0
0
SPLINE
5
364
100
AcDbEntity
8
0
100
AcDbSpline
70
0
71
2
72
6
73
3
74
0
42
0.000000001
43
0.0000000001
44
0.0000000001
40
0
40
0
40
0
40
0.36769600410461217
40
0.36769600410461217
40
0.36769600410461217
10
288.21799965163819
20
113.54177761768895
30
0
10
284.57586738380797
20
113.54177761768895
30
0
10
281.38379523054857
20
112.50444897067493
30
0
0
SPLINE
5
365
100
AcDbEntity
8
0
100
AcDbSpline
70
0
71
2
72
6
73
3
74
0
42
0.000000001
43
0.0000000001
44
0.0000000001
40
0.64268707751005572
40
0.64268707751005572
40
0.64268707751005572
40
1
40
1
40
1
10
276.86097299676373
20
110.37266489900611
30
0
10
274.08612383357485
20
108.6107422358032
30
0
10
271.7362758662378
20
105.8692483971079
30
0
0
SPLINE
5
366
100
AcDbEntity
8
0
100
AcDbSpline
70
0
71
2
72
6
73
3
74
0
42
0.000000001
43
0.0000000001
44
0.0000000001
40
0.081705502625382787
40
0.081705502625382787
40
0.081705502625382787
40
1
40
1
40
1
10
289.1828851014177
20
95.779266123065199
30
0
10
302.04412558998951
20
102.20027005013053
30
0
10
307.78497429153077
20
107.04652119373874
30
0
0
SPLINE
5
367
100
AcDbEntity
8
0
100
AcDbSpline
70
0
71
2
72
6
73
3
74
0
42
0.000000001
43
0.0000000001
44
0.0000000001
40
0
40
0
40
0
40
0.96671868236496206
40
0.96671868236496206
40
0.96671868236496206
10
311.51975364944093
20
91.620266921277818
30
0
10
307.59531700014679
20
88.794675115203447
30
0
10
295.17272528922837
20
82.934024110327883
30
0
0
SPLINE
5
368
100
AcDbEntity
8
0
100
AcDbSpline
70
0
71
2
72
6
73
3
74
0
42
0.000000001
43
0.0000000001
44
0.0000000001
40
0
40
0
40
0
40
0.46520327755919355
40
0.46520327755919355
40
0.46520327755919355
10
349.59825248977296
20
112.56749439930516
30
0
10
354.77277471770924
20
119.81937470795586
30
0
10
361.56381056596558
20
123.69765652855529
30
0
0
SPLINE
5
369
100
AcDbEntity
8
0
100
AcDbSpline
70
0
71
2
72
6
73
3
74
0
42
0.000000001
43
0.0000000001
44
0.0000000001
40
0.61430494775155187
40
0.61430494775155187
40
0.61430494775155187
40
1
40
1
40
1
10
366.0830395416541
20
125.83714663267644
30
0
10
372.14297120598678
20
128.15612126087743
30
0
10
379.31407661697023
20
128.15612126087743
30
0
0
SPLINE
5
370
100
AcDbEntity
8
0
100
AcDbSpline
70
0
71
2
72
6
73
3
74
0
42
0.000000001
43
0.0000000001
44
0.0000000001
40
0
40
0
40
0
40
0.3766825506783813
40
0.3766825506783813
40
0.3766825506783813
10
379.31407661697023
20
113.54177761768895
30
0
10
375.58293007950613
20
113.54177761768895
30
0
10
372.32411156306426
20
112.45312441085889
30
0
0
SPLINE
5
371
100
AcDbEntity
8
0
100
AcDbSpline
70
0
71
2
72
6
73
3
74
0
42
0.000000001
43
0.0000000001
44
0.0000000001
40
0.65161252189419583
40
0.65161252189419583
40
0.65161252189419583
40
1
40
1
40
1
10
367.81868729489412
20
110.28403031391925
30
0
10
365.12350312517742
20
108.54226150295922
30
0
10
362.83235283156984
20
105.8692483971079
30
0
0
SPLINE
5
372
100
AcDbEntity
8
0
100
AcDbSpline
70
0
71
2
72
6
73
3
74
0
42
0.000000001
43
0.0000000001
44
0.0000000001
40
0.076509471269344292
40
0.076509471269344292
40
0.076509471269344292
40
1
40
1
40
1
10
380.13310695323867
20
95.706679700567335
30
0
10
393.1076692492249
20
102.17288785836912
30
0
10
398.88107033034913
20
107.04652119373876
30
0
0
LINE
5
373
100
AcDbEntity
8
0
100
AcDbLine
10
381.60196620272501
20
80.725693091143981
30
0
11
375.6315009693227
21
93.529397102876658
31
0
0
LINE
5
374
100
AcDbEntity
8
0
100
AcDbLine
10
367.81868729489412
20
110.28403031391925
30
0
11
361.56381056596558
21
123.69765652855527
31
0
0
LINE
5
375
100
AcDbEntity
8
0
100
AcDbLine
10
366.0830395416541
20
125.83714663267644
30
0
11
372.32411156306426
21
112.45312441085889
31
0
0
LINE
5
376
100
AcDbEntity
8
0
100
AcDbLine
10
380.13310695323867
20
95.706679700567335
30
0
11
386.12148917188017
21
82.864551285781957
31
0
0
SPLINE
5
377
100
AcDbEntity
8
0
100
AcDbSpline
70
0
71
2
72
6
73
3
74
0
42
0.000000001
43
0.0000000001
44
0.0000000001
40
0
40
0
40
0
40
0.2706994903412705
40
0.2706994903412705
40
0.2706994903412705
10
622.4804660823022
20
111.02485943531592
30
0
10
625.55743402877329
20
115.4864562455609
30
0
10
629.28884745094877
20
118.74030107316435
30
0
0
SPLINE
5
378
100
AcDbEntity
8
0
100
AcDbSpline
70
0
71
2
72
6
73
3
74
0
42
0.000000001
43
0.0000000001
44
0.0000000001
40
0.41232082241378487
40
0.41232082241378487
40
0.41232082241378487
40
1
40
1
40
1
10
633.37228512020852
20
121.81434900164666
30
0
10
642.21635975294873
20
127.50659275745947
30
0
10
654.1448947932397
20
127.50659275745947
30
0
0
SPLINE
5
379
100
AcDbEntity
8
0
100
AcDbSpline
70
0
71
2
72
6
73
3
74
0
42
0.000000001
43
0.0000000001
44
0.0000000001
40
0
40
0
40
0
40
0.61562855794174509
40
0.61562855794174509
40
0.61562855794174509
10
653.08940620681392
20
111.02485943531592
30
0
10
645.74185268953966
20
111.07484003675786
30
0
10
640.39442778242324
20
106.75531513314894
30
0
0
SPLINE
5
380
100
AcDbEntity
8
0
100
AcDbSpline
70
0
71
2
72
6
73
3
74
0
42
0.000000001
43
0.0000000001
44
0.0000000001
40
0.84608815406357152
40
0.84608815406357152
40
0.84608815406357152
40
1
40
1
40
1
10
636.67111888329998
20
102.90897188142851
30
0
10
635.52141376082636
20
101.4201157252772
30
0
10
634.49672432204829
20
99.658148772474121
30
0
0
SPLINE
5
381
100
AcDbEntity
8
0
100
AcDbSpline
70
0
71
2
72
6
73
3
74
0
42
0.000000001
43
0.0000000001
44
0.0000000001
40
0
40
0
40
0
40
0.62903639721325033
40
0.62903639721325033
40
0.62903639721325033
10
648.21796150466548
20
54.922020919080552
30
0
10
653.52943941463673
20
54.922020919080552
30
0
10
657.90926983346469
20
57.363606926945003
30
0
0
SPLINE
5
382
100
AcDbEntity
8
0
100
AcDbSpline
70
0
71
2
72
6
73
3
74
0
42
0.000000001
43
0.0000000001
44
0.0000000001
40
0.94057846920748489
40
0.94057846920748489
40
0.94057846920748489
40
1
40
1
40
1
10
662.01913125963415
20
60.38098885099204
30
0
10
662.38928184320662
20
60.72586197075924
30
0
10
662.75111885329829
20
61.092522628064927
30
0
0
LINE
5
383
100
AcDbEntity
8
0
100
AcDbLine
10
633.36181351026926
20
121.83680508771302
30
0
11
640.39442778242324
21
106.75531513314897
31
0
0
LINE
5
384
100
AcDbEntity
8
0
100
AcDbLine
10
662.01913125963415
20
60.38098885099204
30
0
11
668.90732984048043
21
45.609199324490667
31
0
0
LINE
5
385
100
AcDbEntity
8
0
100
AcDbLine
10
664.7528268230451
20
42.687551880894858
30
0
11
657.90926983346469
21
57.363606926945003
31
0
0
LINE
5
386
100
AcDbEntity
8
0
100
AcDbLine
10
636.67111888329998
20
102.90897188142851
30
0
11
629.28884745094877
21
118.7403010731643
31
0
0
SPLINE
5
387
100
AcDbEntity
8
0
100
AcDbSpline
70
0
71
2
72
6
73
3
74
0
42
0.000000001
43
0.0000000001
44
0.0000000001
40
0
40
0
40
0
40
0.29969139929618027
40
0.29969139929618027
40
0.29969139929618027
10
675.74161262771236
20
52.973454482312974
30
0
10
672.62709436287867
20
48.642325912608598
30
0
10
668.90732984048043
20
45.609199324490604
30
0
0
SPLINE
5
388
100
AcDbEntity
8
0
100
AcDbSpline
70
0
71
2
72
6
73
3
74
0
42
0.000000001
43
0.0000000001
44
0.0000000001
40
0.46070843233706549
40
0.46070843233706549
40
0.46070843233706549
40
1
40
1
40
1
10
664.73553472655522
20
42.724634900708914
30
0
10
657.45669112136125
20
38.521492964978989
30
0
10
648.21796150466548
20
38.521492964978989
30
0
0
ENDSEC
0
SECTION
2
OBJECTS
0
DICTIONARY
5
C
100
AcDbDictionary
3
ACAD_GROUP
350
D
3
ACAD_MLINESTYLE
350
17
0
DICTIONARY
5
D
100
AcDbDictionary
0
DICTIONARY
5
1A
330
C
100
AcDbDictionary
0
DICTIONARY
5
17
100
AcDbDictionary
0
ENDSEC
0
EOF
